<?xml version="1.0" encoding="utf-8"?>
<!-- Generator: Adobe Illustrator 22.1.0, SVG Export Plug-In . SVG Version: 6.00 Build 0)  -->
<svg version="1.1" id="Layer_1" xmlns="http://www.w3.org/2000/svg" xmlns:xlink="http://www.w3.org/1999/xlink" x="0px" y="0px"
	 viewBox="0 0 1919.6 1262.3" style="enable-background:new 0 0 1919.6 1262.3;" xml:space="preserve">
<style type="text/css">
	.st0{fill:url(#SVGID_1_);}
	.st1{fill:url(#SVGID_2_);}
	.st2{fill:url(#SVGID_3_);}
	.st3{opacity:0.4;fill:url(#SVGID_4_);enable-background:new    ;}
	.st4{fill:url(#SVGID_5_);}
	.st5{fill:url(#SVGID_6_);}
</style>
<linearGradient id="SVGID_1_" gradientUnits="userSpaceOnUse" x1="0" y1="631.175" x2="64" y2="631.175">
	<stop  offset="0" style="stop-color:#7290FF"/>
	<stop  offset="1" style="stop-color:#958BFC"/>
</linearGradient>
<rect class="st0" width="64" height="1262.3"/>
<linearGradient id="SVGID_2_" gradientUnits="userSpaceOnUse" x1="-448.8462" y1="1164.8185" x2="640.3067" y2="153.4564">
	<stop  offset="0" style="stop-color:#9890FF;stop-opacity:0"/>
	<stop  offset="1" style="stop-color:#A26AFF"/>
</linearGradient>
<rect x="0.7" class="st1" width="250.3" height="1262.3"/>
<title>Asset 10</title>
<g id="Layer_2_1_">
	<g id="Layer_1-2">
		
			<linearGradient id="SVGID_3_" gradientUnits="userSpaceOnUse" x1="990.3842" y1="1532.829" x2="912.3742" y2="-15.3309" gradientTransform="matrix(1 0 0 -1 0 1262)">
			<stop  offset="0" style="stop-color:#7290FF"/>
			<stop  offset="1" style="stop-color:#958BFC"/>
		</linearGradient>
		<path class="st2" d="M1919.5,6.6c0-2.2,0-4.4,0-6.6H0.7C0.6,3.3,0.3,6.6,0.3,9.9c0,273.7-0.1,547.3-0.1,821c0,2.2,0.2,4.4,0.3,6.6
			c1.6,0.2,3.3,0.4,4.9,0.6c-1.6-0.3-3.3-0.4-4.9-0.6c-0.4,25.9-0.8,51.8,0.1,77.7c0.1,2.4,0.1,4.9,0.1,7.3
			c0.1,110.2,0.1,220.3,0.1,330.4c0,2.7,0.3,5.3,0.4,7.9l-0.4,1.4h1171.8c0-0.5-0.1-0.9-0.1-1.4l0,0c79.8-4.2,149-31.3,197.6-97.3
			c47-63.8,43.3-142.1-6.7-203.7c-8.4-10.4-18.6-19-27.8-28.6c-15.6-16.1-33.2-30.2-46.9-48c-16.3-21.3-24.6-46.2-28.8-72.2
			c-10-62.3,2.7-119.8,40.8-170.4c32.8-43.6,78.4-66.3,131.4-74.6c57.8-9,111.2,2.8,159,36.9c27,19.3,46.9,44.7,63.5,73.3
			c10.2,17.6,18.1,36.6,32.4,51.8c41.5,44,100.7,55.7,157.3,31c31.6-13.8,56.3-34.2,68-67.8c3.8-10.7,7.2-21.9,7.3-33.2
			c0-81.7-0.9-163.1,0-244.8C1921,278,1919.5,142.3,1919.5,6.6z"/>
		
			<linearGradient id="SVGID_4_" gradientUnits="userSpaceOnUse" x1="215.3143" y1="1140.1853" x2="1583.6343" y2="-130.4047" gradientTransform="matrix(1 0 0 -1 0 1262)">
			<stop  offset="0" style="stop-color:#9890FF;stop-opacity:0"/>
			<stop  offset="1" style="stop-color:#A26AFF"/>
		</linearGradient>
		<path class="st3" d="M0.7,1262.3h1171.8c0-0.5-0.1-0.9-0.1-1.4l0,0c79.8-4.2,149-31.3,197.6-97.3c47-63.8,43.3-142.1-6.7-203.7
			c-8.4-10.4-18.6-19-27.8-28.6c-15.6-16.1-33.2-30.2-46.9-48c-16.3-21.3-24.6-46.2-28.8-72.2c-10-62.3,2.7-119.8,40.8-170.4
			c32.8-43.6,78.4-66.3,131.4-74.6c57.8-9,111.2,2.8,159,36.9c27,19.3,46.9,44.7,63.5,73.3c10.2,17.6,18.1,36.6,32.4,51.8
			c41.5,44,100.7,55.7,157.3,31c31.6-13.8,56.3-34.2,68-67.8c3.8-10.7,5.9-21.9,6-33.2c0-81.7-0.6-163.3,0.2-245
			c0.2-16.4,0.3-32.9,0.4-49.3c-30.6,175-164.4,221-440.4,107s-528,117-894,367C232,1078.8,15.8,855.7,0.4,839
			c-0.4,25.4-0.8,50.9,0.1,76.3c0.1,2.4,0.1,4.9,0.1,7.3c0.1,110.2,0.1,220.3,0.1,330.4"/>
	</g>
</g>
<g id="Layer_2_2_">
	<g id="Layer_1-2_1_">
		
			<linearGradient id="SVGID_5_" gradientUnits="userSpaceOnUse" x1="-144.4242" y1="694.7533" x2="208.5058" y2="367.0333" gradientTransform="matrix(1 0 0 -1 0 1262)">
			<stop  offset="0" style="stop-color:#9890FF;stop-opacity:0"/>
			<stop  offset="1" style="stop-color:#A26AFF"/>
		</linearGradient>
		<path class="st4" d="M0,537c111,0,201,90,201,201S111,939,0,939"/>
	</g>
</g>
<g id="Layer_2_3_">
	<g id="Layer_1-2_2_">
		
			<linearGradient id="SVGID_6_" gradientUnits="userSpaceOnUse" x1="-2846.0496" y1="270.2804" x2="-2616.0295" y2="56.6903" gradientTransform="matrix(-1 0 0 1 -833 74)">
			<stop  offset="0" style="stop-color:#9890FF;stop-opacity:0"/>
			<stop  offset="1" style="stop-color:#A26AFF"/>
		</linearGradient>
		<path class="st5" d="M1918.9,364c-72.3,0-131-58.7-131-131s58.7-131,131-131"/>
	</g>
</g>
</svg>
