<svg xmlns="http://www.w3.org/2000/svg" xmlns:xlink="http://www.w3.org/1999/xlink" viewBox="0 0 1575.001 947.499">
  <defs>
    <style>
      .cls-1 {
        fill: url(#linear-gradient);
      }

      .cls-2 {
        fill: url(#linear-gradient-2);
      }

      .cls-3 {
        fill: #7e78ff;
      }

      .cls-4 {
        fill: #827dff;
      }

      .cls-5 {
        fill: #897dff;
      }

      .cls-6 {
        filter: url(#Subtraction_6);
      }

      .cls-7 {
        filter: url(#Subtraction_5);
      }
    </style>
    <linearGradient id="linear-gradient" x1="0.335" y1="0.135" x2="1.075" y2="1.273" gradientUnits="objectBoundingBox">
      <stop offset="0" stop-color="#867aff"/>
      <stop offset="1" stop-color="#8c7fff"/>
    </linearGradient>
    <linearGradient id="linear-gradient-2" x1="1.128" y1="0.618" x2="0.036" y2="0.055" gradientUnits="objectBoundingBox">
      <stop offset="0" stop-color="#7c72ff"/>
      <stop offset="1" stop-color="#958bfc"/>
    </linearGradient>
    <filter id="Subtraction_5" x="1342" y="167.499" width="233" height="314" filterUnits="userSpaceOnUse">
      <feOffset dy="3" input="SourceAlpha"/>
      <feGaussianBlur stdDeviation="20" result="blur"/>
      <feFlood flood-opacity="0.161"/>
      <feComposite operator="in" in2="blur"/>
      <feComposite in="SourceGraphic"/>
    </filter>
    <filter id="Subtraction_6" x="0" y="556.242" width="224.001" height="338.514" filterUnits="userSpaceOnUse">
      <feOffset dy="3" input="SourceAlpha"/>
      <feGaussianBlur stdDeviation="25" result="blur-2"/>
      <feFlood flood-opacity="0.161"/>
      <feComposite operator="in" in2="blur-2"/>
      <feComposite in="SourceGraphic"/>
    </filter>
  </defs>
  <g id="Bg-Hero" transform="translate(75 0.499)">
    <path id="Union_2" data-name="Union 2" class="cls-1" d="M795.276,945H-45V0H1395V495.986a62.229,62.229,0,0,1-2.42,16.444,90.411,90.411,0,0,1-16.388,31.9A61.046,61.046,0,0,1,1364.2,555.82a132.38,132.38,0,0,1-34.811,17.93,107.721,107.721,0,0,1-33.951,5.612A99.883,99.883,0,0,1,1201.416,513l-1.467.88a158.139,158.139,0,0,0-143.582-91.5,168.357,168.357,0,0,0-39.91,4.877A191.155,191.155,0,0,0,975.422,442.6a106.179,106.179,0,0,0-16.152,10.461A173.341,173.341,0,0,0,928.833,483.5a106.184,106.184,0,0,0-10.461,16.153,191.566,191.566,0,0,0-14.89,38.783,169.437,169.437,0,0,0-5.458,37.862,159.588,159.588,0,0,0,3.066,36.02,157.078,157.078,0,0,0,10.683,33.256,92.489,92.489,0,0,0,10.963,18.3,101.047,101.047,0,0,0,14.7,15.436A117.3,117.3,0,0,1,953.8,696.316c33.461,26.557,54.2,63.427,54.2,104.183,0,80.91-81.708,146.5-182.5,146.5A227.839,227.839,0,0,1,795.276,945Z" transform="translate(45 0)"/>
    <path id="Subtraction_4" data-name="Subtraction 4" class="cls-2" d="M457.473,1057.068h-.048A292.328,292.328,0,0,1,426,1055.35a310.383,310.383,0,0,1-32.4-5.3,341.527,341.527,0,0,1-33.4-9.122c-11.367-3.724-22.956-8.159-34.446-13.18-104.129-45.509-194.026-68.583-267.194-68.583a300.963,300.963,0,0,0-42.975,2.947,229.221,229.221,0,0,0-34.894,7.769A184.116,184.116,0,0,0-45,979.951V293.5H1396V593.793c-8.231-1.18-16.623-2.241-24.945-3.151a764.383,764.383,0,0,0-82.869-4.525c-70.139,0-138.6,9.744-203.468,28.96a209.5,209.5,0,0,0-29.633,11.409,280.489,280.489,0,0,0-29.328,16.156c-18.378,11.529-37.409,25.964-58.181,44.128-9.331,8.16-18.842,16.914-29.076,26.762-9.166,8.819-18.723,18.334-29.215,29.087-19.546,20.029-38.815,40.727-59.215,62.641l-.081.087-.011.012c-27.881,29.95-56.712,60.92-86.413,90.17-16.012,15.769-30.853,29.649-45.373,42.434-16.336,14.383-31.782,26.958-47.22,38.445-8.159,6.07-16.369,11.86-24.4,17.208-8.354,5.561-16.758,10.806-24.977,15.587-8.528,4.962-17.138,9.592-25.592,13.759-8.716,4.3-17.547,8.243-26.246,11.724-8.943,3.578-18.006,6.767-26.938,9.481-9.171,2.785-18.48,5.149-27.668,7.028-9.431,1.927-19,3.4-28.436,4.37A286.567,286.567,0,0,1,457.473,1057.068Z" transform="translate(44.5 -294)"/>
    <g class="cls-7" transform="matrix(1, 0, 0, 1, -75, -0.5)">
      <path id="Subtraction_5-2" data-name="Subtraction 5" class="cls-3" d="M52,305a97.715,97.715,0,0,1-19.549-1.971,96.47,96.47,0,0,1-34.685-14.6,97.537,97.537,0,0,1-26.2-26.2,96.469,96.469,0,0,1-14.6-34.685,97.945,97.945,0,0,1,0-39.1,96.469,96.469,0,0,1,14.6-34.685,97.283,97.283,0,0,1,42.677-35.144,96.511,96.511,0,0,1,18.208-5.652A98.022,98.022,0,0,1,68,112.313V303.687A98,98,0,0,1,52,305Z" transform="translate(1447 113.5)"/>
    </g>
    <g class="cls-6" transform="matrix(1, 0, 0, 1, -75, -0.5)">
      <path id="Subtraction_6-2" data-name="Subtraction 6" class="cls-4" d="M102,348.257V159.743a96.3,96.3,0,0,1,29.479,12.666,97.029,97.029,0,0,1,0,163.182A96.3,96.3,0,0,1,102,348.257Z" transform="translate(-27 468.5)"/>
    </g>
    <rect id="Rectangle_112" data-name="Rectangle 112" class="cls-5" width="872" height="51" transform="translate(0 896)"/>
  </g>
</svg>
