<svg xmlns="http://www.w3.org/2000/svg" viewBox="0 0 565 742.99">
  <defs>
    <style>
      .cls-1 {
        opacity: 0.097;
      }

      .cls-2 {
        fill: #472f12;
      }

      .cls-3 {
        fill: #b8bede;
      }

      .cls-4 {
        fill: #e0cce0;
      }

      .cls-5 {
        fill: #f0e7f0;
      }

      .cls-6 {
        fill: #f27048;
      }

      .cls-7 {
        fill: #302a26;
      }

      .cls-8 {
        fill: #12100e;
      }

      .cls-9 {
        fill: #303a3a;
      }

      .cls-10 {
        fill: #4d5858;
      }

      .cls-11 {
        fill: #343434;
      }

      .cls-12 {
        fill: #1c1c1c;
      }

      .cls-13 {
        fill: #f8a773;
      }

      .cls-14 {
        fill: #fab685;
      }

      .cls-15 {
        fill: #838e93;
      }

      .cls-16 {
        fill: #64706f;
      }

      .cls-17 {
        fill: #05030d;
      }

      .cls-18 {
        fill: #2a2926;
      }

      .cls-19 {
        fill: #979797;
      }

      .cls-20 {
        fill: #1d1d1d;
      }

      .cls-21 {
        fill: #f79b6a;
      }

      .cls-22 {
        fill: #cbe6f3;
      }

      .cls-23 {
        fill: #ffd983;
      }

      .cls-24 {
        fill: #0b0b0b;
      }

      .cls-25 {
        fill: #801833;
      }

      .cls-26 {
        fill: #f6c96b;
      }

      .cls-27 {
        fill: #76829b;
      }

      .cls-28 {
        fill: #6d7b79;
      }

      .cls-29 {
        fill: #464747;
      }

      .cls-30 {
        fill: #e4eae8;
      }

      .cls-31 {
        fill: #a2a6a4;
      }

      .cls-32 {
        fill: #d1d6d3;
      }

      .cls-33 {
        fill: #f8fffc;
      }

      .cls-34 {
        fill: #d6dbd9;
      }

      .cls-35 {
        fill: #cacfcd;
      }

      .cls-36 {
        fill: #e5ebe8;
      }

      .cls-37 {
        fill: #c5c2e1;
      }

      .cls-38 {
        fill: #9782b5;
      }

      .cls-39 {
        fill: #722f2b;
      }

      .cls-40 {
        fill: #e6d2d5;
      }

      .cls-41 {
        fill: #95423e;
      }

      .cls-42 {
        fill: #efc3e6;
      }

      .cls-43 {
        fill: #803733;
      }
    </style>
  </defs>
  <g id="Illustration" transform="translate(-0.002 0.192)">
    <g id="Group_5" data-name="Group 5" class="cls-1" transform="translate(37.014 427.799)">
      <path id="Path_45" data-name="Path 45" class="cls-2" d="M473.014,493.89c-4.975-.344-10.354,1.547-13.715,2.578a82.891,82.891,0,0,0-23.934-6.016c-.807,0-1.614.172-2.42.172a3.99,3.99,0,0,0-1.479.172c-.134-.172-.134-.516-.269-.687a13.142,13.142,0,0,0-2.824-4.3l4.841-11.344a26.815,26.815,0,0,0,4.975,1.891c6.32,1.375,12.505,0,13.715-3.094l1.748-4.125c23.8-4.3,30.389-12.891,33.481-24.235h0c3.63-7.563-3.093-16.672-12.371-24.923l74.761-76.83L526.4,330.776h0a29.619,29.619,0,0,0-5.109-6.188h0A10.99,10.99,0,0,1,519,323.214h-.134c-.269-.172-.4-.344-.672-.516a24.735,24.735,0,0,1-3.5-3.266c-1.21-1.031-2.42-2.063-3.765-3.266a20.361,20.361,0,0,1-1.748-1.547c-1.345-1.031-2.555-2.063-3.9-3.094-1.076-.859-2.42-1.891-3.63-2.75l-2.017-1.547a3.948,3.948,0,0,0-1.345-.859l-.807-.516a5.594,5.594,0,0,1-1.479-1.2c-.538-.344-1.076-.859-1.614-1.2a1.986,1.986,0,0,1-.538-.516c-.269-.344-.672-.516-.941-.859-.4-.344-.807-.859-1.21-1.2a8.667,8.667,0,0,1-1.076-1.2c-.269-.172-.4-.516-.538-.688l-.538-.688v-1.375c0-.172.134-.516.134-.859.135-.344.135-.687.269-1.031h.135q.807.258,2.017.516a11.475,11.475,0,0,0,2.42.172h2.017c2.555-.172,4.841-.859,5.379-1.891.672-1.2.4-2.234.672-3.438a2.127,2.127,0,0,1,.269-.859c5.378-2.922,10.219-5.844,15.06-9.11,1.614-1.031,3.227-2.234,4.841-3.266,5.916-4.125-.941-12.032-10.892-17.875h-.134c-17.884-10.485-55-14.266-65.887-5.844a8.863,8.863,0,0,0-2.824,3.781,24.767,24.767,0,0,0-2.689,8.25,15.356,15.356,0,0,0,.134,4.3,7.064,7.064,0,0,0-.538,1.547,5.4,5.4,0,0,0-.134,1.375v1.031c-1.614-.688-3.63-1.547-5.782-2.406a72.82,72.82,0,0,0-8.068-2.578h-.941a30.707,30.707,0,0,0-8.068.516c-1.479.344-3.093.688-4.437,1.031-.134,0-.4.172-.538.172-.269,0-.672.172-.941.172a35.2,35.2,0,0,0-3.9,1.375l-6.051,2.063h0c-2.824.688-5.513,1.547-8.337,2.406-.807.172-1.614.516-2.42.688-2.42.688-4.975,1.547-7.53,2.234-3.362,1.031-7.126,1.719-10.891,2.578-2.689.516-5.379,1.2-7.8,1.891l.4.172a.991.991,0,0,0-.269.687v.516a6.246,6.246,0,0,0,1.614,3.438h-.134c-.134,0-.269.172-.4.172h-.134a14.234,14.234,0,0,0-2.689,1.375c-.807.344-1.614.688-2.286,1.031-6.051,2.922-11.833,5.844-17.48,8.766-1.345.516-2.824.859-4.3,1.375l.269.172c-.134,0-.269,0-.269.172-1.614.516-3.362,1.031-5.11,1.547a130.761,130.761,0,0,0-24.472,11.344,17.724,17.724,0,0,0-2.824,1.891,7.515,7.515,0,0,0-1.076.859,9.1,9.1,0,0,0-1.479,1.2l-1.21,1.031a11.454,11.454,0,0,1-1.614,1.375,1.465,1.465,0,0,0-.672.688,498.331,498.331,0,0,0-70.19-25.61l-21.783-11.688-15.06-8.078h0s-.941-.344-2.151-.687a.43.43,0,0,1-.4-.172,11.25,11.25,0,0,0-3.9-.516c-.538.172-.941.344-.672,1.031l-1.076-.688h0l4.168,11c-27.161-5.156-57.55-8.594-89.149-7.735-50.02,1.2-68.576,9.453-72.475,18.907-18.69,17.188,13.715,40.22,20.438,44.689l-23.128,55c-1.614,3.953,3.63,8.422,11.564,10.313a27.278,27.278,0,0,0,11.16.172c3.227-.687,5.647-2.063,6.454-3.953l19.9-47.267c3.5,1.891,6.992,3.781,10.623,5.844l.134-.172c4.841,2.578,9.681,5.156,14.388,7.735h-.134c40.742,22,71.669,38.673,81.484,44,0,0,0,.172-.134.172-3.227,8.422-5.916,15.813-6.858,20.282-1.076.859-2.017,1.891-3.093,2.75-.807.688-1.479,1.2-2.286,1.891-.941.688-1.882,1.375-2.689,2.063-.807.516-1.614,1.2-2.42,1.719a5.66,5.66,0,0,1,1.748.688c-.4.172-.807.172-1.345.344-1.076.172-2.151.516-3.227.688a2.917,2.917,0,0,0,.672-.516l.807-.516-.269-.172c-11.295,2.75-20.573-.516-34.019,0a8.6,8.6,0,0,0-3.093.516.677.677,0,0,0-.538.172h-.134a5.512,5.512,0,0,0-2.42,1.547,3.479,3.479,0,0,0-.941,1.891c-.134,1.547.807,3.266,3.227,4.984a7.354,7.354,0,0,0-.941,1.2,25.123,25.123,0,0,1-1.748,2.234l-.4.516v.172a6.143,6.143,0,0,0,.269,3.438c.134.344.269.859.4,1.2h-.269a47.667,47.667,0,0,0,20.169,7.219c2.42.344,4.975.344,7.53.516a235.775,235.775,0,0,0,25.01-.688c6.454-.516,12.908-1.031,19.363-1.375,1.479-.172,2.824-.172,4.3-.344,1.614-.172,3.227-.172,4.841-.344,2.286-.172,4.572-.516,6.858-.687.672,0,1.345-.172,2.017-.172l-11.7,27.845c-1.614,3.953,3.63,8.422,11.7,10.313a27.278,27.278,0,0,0,11.16.172c3.227-.687,5.647-2.063,6.454-3.953l23.262-55.173,2.824,1.031c6.185,2.063,12.64,4.125,19.363,6.016,12.371,3.609,25.682,7.047,39.935,10.141,3.5.687,6.992,1.375,10.623,2.063-2.151,5.156-3.63,8.594-3.63,8.594-1.345,3.094,2.689,6.875,9.009,8.25s12.505,0,13.715-3.094l4.168-9.8a464.4,464.4,0,0,0,54.861,4.469L396.773,485.3c-1.345,3.266,2.151,7.047,8.068,9.281a8.157,8.157,0,0,0-2.824,3.094c-1.21,2.922-1.882,6.188-.4,9.453a40.094,40.094,0,0,0-6.858,1.031c-4.3-8.422-34.826-6.188-42.221-3.438A36.562,36.562,0,0,0,336,518.813c-.134.172-.269.516-.4.688-7.933-.344-12.908.172-16.136,1.2-6.992,1.891-11.429,7.219-12.505,11.344-.807,4.641,3.093,9.281,10.085,12.891a63.559,63.559,0,0,0,8.2,3.266c7.933,2.234,22.993,4.813,16.27-2.063-2.824-2.75-7.8-4.813-12.236-6.875-4.841-2.234-9.009-4.641-9.412-8.25-.807-4.984,5.513-5.844,13.312-6.188a14.345,14.345,0,0,0-.807,2.922,7.111,7.111,0,0,0-3.5.172c-2.42,1.031-.538,4.3,2.555,6.188,6.454,4.125,13.715,7.735,20.976,11.516,3.5,1.891,8.471,3.266,12.505,1.891a10.931,10.931,0,0,0,2.151-1.2c2.689,1.375,5.513,2.406,7.933,3.438l.672.172v.344c-1.345,1.375-1.882,2.75-1.479,4.125.672,3.094,5.244,6.016,13.581,7.391,4.437.688,6.992.172,8.068-.859,5.647,1.719,14.656,2.406,15.06-.859.134-1.2-1.882-2.75-4.572-3.953a27.534,27.534,0,0,0-7.4-2.406c0-.172.134-.344.134-.516,3.093-5.672,12.64-9.625,16.942-15.125,7.53-1.375,14.656-3.781,16.539-7.563h.269c1.479-2.578,6.051-4.469,10.085-6.531,1.345.172,2.689.344,3.9.516,23.4,1.375,31.868-9.281,24.876-19.251C472.476,501.8,476.107,497.5,473.014,493.89Zm-98.292,48.986a23.724,23.724,0,0,0-3.5-1.719c2.42-.516,5.513-.688,7.53-1.375a26.017,26.017,0,0,0-2.286,4.813A5.314,5.314,0,0,0,374.722,542.876Z" transform="translate(-21.535 -248.814)"/>
    </g>
    <g id="Group_10" data-name="Group 10" transform="translate(0.002 -0.192)">
      <g id="Group_6" data-name="Group 6">
        <path id="Path_46" data-name="Path 46" class="cls-3" d="M215.3,345.463c0,7.563,5.672,13.75,12.547,13.75s12.547-6.188,12.547-13.75V321.4a214.451,214.451,0,0,1-24.923,3.094C215.3,337.041,215.3,345.463,215.3,345.463Z" transform="translate(154.754 231.352)"/>
        <path id="Path_47" data-name="Path 47" class="cls-3" d="M281.5,314.744a10.818,10.818,0,0,0,5.672,1.547c6.875,0,12.547-6.188,12.547-13.75V292.4A129.911,129.911,0,0,1,281.5,307.01Z" transform="translate(202.338 210.506)"/>
        <path id="Path_48" data-name="Path 48" class="cls-4" d="M301.187,93.647h0a7.836,7.836,0,0,1,3.438,3.266,11.5,11.5,0,0,1,1.2,2.922H306c.172.516.172,1.2.344,1.719,0,.344.172.516.172.859a27.869,27.869,0,0,1,1.891,8.078,18.681,18.681,0,0,1,.172,3.094,37.107,37.107,0,0,1-.516,6.016l.688.344,20.11-11.688L300.5,92.1c.172.172.172.344.344.516A2.441,2.441,0,0,0,301.187,93.647Z" transform="translate(215.995 66.532)"/>
        <path id="Path_49" data-name="Path 49" class="cls-5" d="M321.657,113.7,299.485,219.581,283.5,295.9a159.685,159.685,0,0,1,14.954,13.922L340.908,101.5,320.8,113.188Z" transform="translate(203.776 73.288)"/>
        <path id="Path_50" data-name="Path 50" class="cls-6" d="M241.5,74.9Z" transform="translate(173.586 54.168)"/>
        <path id="Path_51" data-name="Path 51" class="cls-6" d="M295.059,138.234c.172-.688.344-1.547.516-2.234a10.2,10.2,0,0,1-.688,1.375c-.172.516-.516.859-.687,1.375a1.033,1.033,0,0,1,.688.172A1.3,1.3,0,0,0,295.059,138.234Z" transform="translate(211.467 98.087)"/>
        <path id="Path_52" data-name="Path 52" class="cls-3" d="M327.192,108.959l-.859-.516-.687-.344a24.084,24.084,0,0,1-1.031,4.813c-.172.516-.344,1.2-.516,1.719,0,.172-.172.516-.172.688a27.224,27.224,0,0,1-2.234,5.328c-.344,2.75-.859,5.672-1.375,8.422-1.2,6.7-2.578,13.75-3.266,20.282a66.841,66.841,0,0,0-.516,9.969c-1.891,0-3.953-.172-6.016-.344-.859,0-1.547-.172-2.406-.172a20,20,0,0,1-.688,3.094c-1.547,7.391-2.922,14.094-4.3,19.422-4.3,20.11-10.828,37.47-18.391,55L275.8,280.839c3.953,2.75,8.594,6.188,13.235,10.141l15.985-76.314Z" transform="translate(198.241 78.032)"/>
        <path id="Path_53" data-name="Path 53" class="cls-6" d="M294.6,137.7Z" transform="translate(211.754 99.309)"/>
        <path id="Path_54" data-name="Path 54" class="cls-7" d="M244.7,192.806l-4.3-2.406h0Z" transform="translate(172.796 137.189)"/>
        <path id="Path_55" data-name="Path 55" class="cls-7" d="M242.5,189.472c.172,0,.344-.172.516-.172h0C242.844,189.3,242.672,189.472,242.5,189.472Z" transform="translate(174.305 136.399)"/>
        <path id="Path_56" data-name="Path 56" class="cls-7" d="M243.959,194.534a6.966,6.966,0,0,0-.859-1.547l1.2-.687h0l-1.2.688A6.183,6.183,0,0,1,243.959,194.534Z" transform="translate(174.736 138.555)"/>
        <path id="Path_57" data-name="Path 57" class="cls-8" d="M138.5,200.9h0l19.079,11.344L138.5,200.9Z" transform="translate(99.55 144.737)"/>
        <path id="Path_58" data-name="Path 58" class="cls-9" d="M267.552,196.144a136.129,136.129,0,0,1-13.407,6.36,53.462,53.462,0,0,1-8.422,2.75,1.869,1.869,0,0,1-.859.172,27.309,27.309,0,0,1-11.172.344c-.172,0-.172.172-.344.172h0c-15.469,6.531-31.626,14.438-45.548,20.8l6.188,17.532,53.8-30.251,3.953-2.234,4.3-2.406a1.033,1.033,0,0,1-.688.172c2.922-1.719,5.844-3.438,7.906-4.641l1.031-.516,2.922-1.547,4.469-2.578,7.391-4.125,3.438-1.891,1.2-.687-1.375-.859-4.3-2.406C274.943,192.191,271.333,194.081,267.552,196.144Z" transform="translate(134.987 137.117)"/>
        <path id="Path_59" data-name="Path 59" class="cls-10" d="M334.866,204.223l-7.391,4.125-4.469,2.578-2.922,1.547-1.031.516c-2.063,1.2-4.985,2.922-7.906,4.641.172-.172.344-.172.687-.172l-4.3,2.406-3.953,2.234-53.8,30.251-7.735,4.3-34.72-20.626L111.767,179.3c-2.234,3.781-1.031,8.766-1.031,8.766l48.3,28.7,19.079,11.344,23.719,14.094,40.392,24.063,97.8-54.83a13.157,13.157,0,0,0,.344-4.813,11.118,11.118,0,0,0-.688-2.234,6.964,6.964,0,0,0-.859-1.547Z" transform="translate(79.361 129.211)"/>
        <path id="Path_60" data-name="Path 60" class="cls-11" d="M325.2,97.1c-3.609-5.844-8.938-11-15.469-11.86-8.25-.859-15.985,4.984-21.485,10.141-7.563,6.875-11.172,15.985-14.094,25.438-2.406,7.391-4.641,14.782-8.25,21.485,3.953,7.047,18.047,12.547,24.407,15.641,6.531,3.094,12.891,4.641,20.282,5.844,3.438.516,9.282,2.234,13.75,2.063h0c.688-6.7,2.063-13.578,3.266-20.282.516-2.922,1.031-5.672,1.375-8.422.859-1.891,1.547-3.609,2.234-5.328,0-.172.172-.516.172-.688.172-.516.344-1.2.516-1.719.516-1.719.688-3.266,1.031-4.813a37.1,37.1,0,0,0,.516-6.016,18.679,18.679,0,0,0-.172-3.094,27.871,27.871,0,0,0-1.891-8.078c0-.344-.172-.516-.172-.859-.172-.516-.172-1.2-.344-1.719H330.7a11.5,11.5,0,0,0-1.2-2.922,7.836,7.836,0,0,0-3.438-3.266h0a3.758,3.758,0,0,0-.516-.859c-.172-.172-.172-.344-.344-.687h0c0-.172-.172-.344-.344-.516C324.855,96.751,325.027,96.923,325.2,97.1Z" transform="translate(191.125 61.537)"/>
        <path id="Path_61" data-name="Path 61" class="cls-12" d="M270.06,130.116c.859,1.031,1.719,2.063,2.75,3.094a18.822,18.822,0,0,0,1.891,1.719c9.8,8.594,25.094,13.75,38.157,15.985,1.2.172,2.234.344,3.438.516h0a5.148,5.148,0,0,1,.688-1.375,10.2,10.2,0,0,1,.688-1.375c-.172.688-.344,1.547-.516,2.234,0,.172-.172.516-.172.688h0c.859,0,1.547.172,2.406.172,2.063.172,4.125.344,6.016.344a64.612,64.612,0,0,1,.516-9.969h0c-4.641.172-10.313-1.547-13.75-2.063-7.391-1.2-13.75-2.75-20.282-5.844-6.36-2.922-20.454-8.594-24.407-15.641a42.353,42.353,0,0,1-3.781,5.844,29.818,29.818,0,0,0,6.016,6.36c0-.172.172-.516.172-.688S269.888,129.944,270.06,130.116Z" transform="translate(189.544 85.58)"/>
        <path id="Path_62" data-name="Path 62" class="cls-11" d="M324.358,137.772a1.033,1.033,0,0,1-.688-.172h0c-.859,1.547-1.547,3.094-2.234,4.469-8.25,17.7-15.985,33.688-27.5,49.329a37.14,37.14,0,0,1-4.641,4.3,66.618,66.618,0,0,1-5.328,4.469,121.968,121.968,0,0,1-15.641,10.141c-4.813,2.75-9.969,5.156-15.125,7.563,4.813,1.2,9.625,3.953,14.266,5.156,7.735,1.891,18.907,4.641,28.188,4.3h0c1.891-4.125,3.609-8.078,5.5-12.2,7.563-17.532,14.094-34.892,18.391-55,1.2-5.156,2.75-12.032,4.3-19.422.172-.859.344-1.891.516-2.922Z" transform="translate(181.996 99.237)"/>
        <path id="Path_63" data-name="Path 63" class="cls-13" d="M185.853,245.306v.172c2.922,4.3,5.328,3.781,9.625,1.375.516-.344,1.031-.516,1.547-.859h0c.344-.172.859-.344,1.2-.516h.172c.172,0,.172,0,.344-.172a2.484,2.484,0,0,1,1.2-.344l1.547-.516c.172,0,.344-.172.516-.172h0a.168.168,0,0,0,.172-.172,21.377,21.377,0,0,1,2.75-.688h0c3.781-3.094,7.219-2.406,13.922-2.75,7.391,0,17.532-5.156,20.626-11.688,7.563,13.579,25.782,6.7,38.845-.687h0c3.781-2.234,7.219-4.3,9.8-6.016,23.032-15.3,47.783-26.469,54.486-56.376,1.891-8.938,4.641-16.5-1.547-23.891-4.3-4.641-11.688-8.25-14.438-13.407h-.172c-.516,1.719-1.031,3.438-1.375,5.156a131.589,131.589,0,0,1-5.5,17.188c-2.234,6.36-4.3,12.719-4.813,17.7l.516.859c-14.782,11.688-33,20.11-48.3,31.282-.516.344-1.031.859-1.547,1.2h0a18.209,18.209,0,0,0-2.063,1.719c-2.75,2.234-5.844,4.984-8.938,7.563-.859.688-1.547,1.2-2.406,1.891a.168.168,0,0,0-.172.172,32.236,32.236,0,0,1-3.094,2.063c-.516.344-1.2.688-1.719,1.031a23.972,23.972,0,0,1-8.594,3.266,7.445,7.445,0,0,1-.859.172,8.367,8.367,0,0,1-2.063.172h0c-.859-.344-1.719-.516-2.578-.859-8.422-2.922-15.813-6.36-25.266-6.7a55.32,55.32,0,0,0-7.391,6.7c-1.891,1.891-3.61,3.953-5.5,5.844v1.031c-.859,1.031-2.063,2.063-2.922,3.094a54.533,54.533,0,0,0-3.953,7.219c-.344.688-.859,1.375-1.031,1.891,0-.344.172-.687.172-1.031a17.117,17.117,0,0,0-1.719,1.891c-1.031.859-2.406,2.063-3.438,3.094l1.031,2.75a7.125,7.125,0,0,0,2.75.344Zm60.673-15.469Zm-29.219-2.578-.172.344a38.676,38.676,0,0,1-4.125-1.375l-1.547-.516L209.4,225.2a3.785,3.785,0,0,0-1.375-.172,2.18,2.18,0,0,0-1.031-.172h-.516c-.344,0-.688-.172-1.031,0,3.094-1.375,5.672-2.922,9.281-3.094h0A23.265,23.265,0,0,0,217.307,227.259Z" transform="translate(130.746 92.768)"/>
        <path id="Path_64" data-name="Path 64" class="cls-14" d="M236.3,60c0,.344.172.688.172,1.2.172,1.031.516,2.063.688,3.094.344,1.891.516,3.609.688,5.156.516,4.813.344,8.594,1.031,12.719a27.92,27.92,0,0,0,.688,3.266,6.08,6.08,0,0,0,1.547,2.922,12.089,12.089,0,0,0,3.266,2.234c.344.172.859.344,1.2.516.172.172.516.172.688.344a37.539,37.539,0,0,0,7.906,2.406,2.18,2.18,0,0,0,1.031.172h.172c.172,0,.344.172.688.172.516,0,1.2.172,1.547,0,2.578-.172,11.86-3.094,20.8-7.047a8.73,8.73,0,0,1-.516-2.922c-.516-4.125-.172-7.906-1.375-13.578-.859-4.469-2.234-7.563-1.547-11.688.859-6.531,2.063-6.875-.344-12.032a57.3,57.3,0,0,1,1.2-8.25h0c-4.469-.344-8.766-2.406-13.063-3.953,1.2,2.406,3.953,5.672,3.61,8.25-3.266,0-9.282-4.125-11.86-6.188-2.234-2.063-5.672-4.813-8.078-8.25.859,1.719,1.547,4.3,2.234,6.016-3.953-3.781-11-8.078-11.516-14.266A107.064,107.064,0,0,0,235.1,35.6c2.578,6.36,1.375,6.531.516,14.61v.859a12.738,12.738,0,0,0,.172,3.609,10.793,10.793,0,0,0,.516,3.266c-.344.516-.172,1.2,0,2.063Z" transform="translate(168.986 14.922)"/>
        <path id="Path_65" data-name="Path 65" class="cls-8" d="M218.7,177.9l3.438,2.063,3.094-2.063-3.094,2.063Z" transform="translate(157.198 128.204)"/>
        <path id="Path_66" data-name="Path 66" class="cls-8" d="M193.2,163.2l27.329,15.813Z" transform="translate(138.868 117.638)"/>
        <path id="Path_67" data-name="Path 67" class="cls-15" d="M219.4,187.5Z" transform="translate(157.701 135.105)"/>
        <path id="Path_68" data-name="Path 68" class="cls-15" d="M215.672,177.6a.6.6,0,0,1-.172.344c.172,0,.344-.172.516-.172C215.844,177.6,215.844,177.6,215.672,177.6Z" transform="translate(154.898 127.989)"/>
        <path id="Path_69" data-name="Path 69" class="cls-16" d="M181.388,180.426c7.906,5.672,16.157,11.516,23.548,16.329a68.437,68.437,0,0,1,7.391-6.7c9.625.344,17.016,3.781,25.266,6.7.859.344,1.719.516,2.578.859h0a8.368,8.368,0,0,0,2.063-.172c.344,0,.516-.172.859-.172a.893.893,0,0,0-.687-.344,6.647,6.647,0,0,0-3.953-.859,2.484,2.484,0,0,1,1.2-.344,7.475,7.475,0,0,1-1.2-.687C224.358,186.957,207,176.472,192.56,166.16c-.172-.172-.172-.172-.344-.172l-4.125-2.578c-1.891-1.2-3.438-2.406-5.328-3.609a49.3,49.3,0,0,0-4.813,8.938.6.6,0,0,1-.172.344,65.46,65.46,0,0,1-2.578,7.563c1.375,1.719,4.3,2.922,6.016,4.125A.532.532,0,0,0,181.388,180.426Z" transform="translate(125.93 115.194)"/>
        <path id="Path_70" data-name="Path 70" class="cls-17" d="M214.272,199.372l-.172-.172h0l.172.172Z" transform="translate(153.891 143.515)"/>
        <path id="Path_71" data-name="Path 71" class="cls-18" d="M237.13,202.075c-5.844-1.031-11.86-3.094-17.875-3.609-1.547.859-3.266,1.547-4.813,2.406s-3.094,1.547-4.641,2.578a26.391,26.391,0,0,0-5.5,4.3,9.26,9.26,0,0,1-6.875,1.031c-.859-.344-1.891-.687-2.922-1.2a.168.168,0,0,1-.172-.172c.516-.687.859-1.2.859-1.2v-.859c1.2-.859,2.234-1.891,3.438-2.922,2.234-2.234,4.469-4.469,6.875-6.531a.168.168,0,0,0,.172-.172c.172-.172.344-.344.344-.516-.344,0-.687.172-1.2.172h0a16.1,16.1,0,0,0-2.75.688c-.172,0-.172,0-.172.172a29.62,29.62,0,0,1-3.609,1.2h-.172a8.375,8.375,0,0,0-1.2.516h0a6.966,6.966,0,0,0-1.547.859c-4.3,2.406-6.7,3.094-9.625-1.375v-.172c-.172.172-.344.172-.687.172a13.359,13.359,0,0,1-2.75-.344l9.453,25.954c13.922-6.36,30.079-14.266,45.548-20.8C237.13,202.247,237.13,202.247,237.13,202.075Z" transform="translate(131.034 140.64)"/>
        <path id="Path_72" data-name="Path 72" class="cls-12" d="M197.881,91.819a93.107,93.107,0,0,0,9.969,12.2,49.785,49.785,0,0,0,9.969,7.735,15.673,15.673,0,0,0,7.219,2.406c.172-3.438.688-6.875,1.2-10.313C214.21,100.069,200.8,86.663,201.147,73.6a76.455,76.455,0,0,0-7.047,8.078l.516.344a4.673,4.673,0,0,0,0,1.547,2.18,2.18,0,0,0,.172,1.031,18.763,18.763,0,0,0,3.094,7.219Z" transform="translate(139.515 53.234)"/>
        <path id="Path_73" data-name="Path 73" class="cls-13" d="M166.941,191.84a110.2,110.2,0,0,1-4.641,15.125l13.063,7.391.172.172c3.438-6.188,7.563-12.375,11.516-18.563,1.891-3.094,3.953-6.188,5.672-9.11,6.36-10.657,14.094-23.032,17.7-34.892,1.547-4.3-.687-14.094,1.2-17.188,1.2-1.891,5.844-3.438,7.906-4.985,3.953-3.438,15.3-17.188,14.094-23.032C232.6,101.432,221.6,93.7,216.27,89.4c-4.813,9.282-9.453,18.735-13.75,28.36-1.2,1.719-2.578,3.438-3.609,5.156l.344.172c0,.172-.172.172-.344.344-1.375,2.063-2.922,3.953-4.469,5.844-7.735,11.86-14.954,24.923-19.766,37.47-.687,1.891-1.375,3.61-2.063,5.5a12.657,12.657,0,0,0-.687,2.406c-.344,1.031-.687,2.234-1.031,3.266-.172.859-.516,1.891-.687,2.75-.344,1.375-.687,2.75-1.031,3.953-.172.516-.344,1.2-.516,1.719-.172.859-.516,1.719-.687,2.75A17.894,17.894,0,0,0,166.941,191.84Zm27.5-59.986h0v.172h0Z" transform="translate(116.658 64.591)"/>
        <path id="Path_74" data-name="Path 74" class="cls-16" d="M195.7,185.822h1.547a2.18,2.18,0,0,1,1.031.172,3.351,3.351,0,0,0,1.375.172l2.063.516,1.547.516c1.375.516,2.922,1.031,4.125,1.375l.172-.344a25.123,25.123,0,0,1-2.406-5.328h0C201.372,182.9,198.794,184.447,195.7,185.822Z" transform="translate(140.665 131.798)"/>
        <path id="Path_75" data-name="Path 75" class="cls-18" d="M196.244,195.2h0c-.172,0-.172.172-.344.344Z" transform="translate(140.809 140.64)"/>
        <path id="Path_76" data-name="Path 76" class="cls-14" d="M194.35,196l-1.547.516a2.484,2.484,0,0,1-1.2.344,2.484,2.484,0,0,1,1.2-.344Z" transform="translate(137.718 141.215)"/>
        <path id="Path_77" data-name="Path 77" class="cls-14" d="M191.532,197.1h0c1.031-.344,2.234-.687,3.438-1.2H194.8C193.766,196.416,192.563,196.588,191.532,197.1Z" transform="translate(137.615 141.143)"/>
        <path id="Path_78" data-name="Path 78" class="cls-18" d="M192.707,207.829l.859-.859a54.517,54.517,0,0,1,3.953-7.219c.859-1.031,2.063-2.063,2.922-3.094v-1.031c1.719-2.063,3.609-3.953,5.5-5.844-7.391-4.813-15.813-10.657-23.548-16.329a.168.168,0,0,1-.172.172c-1.719-1.2-4.641-2.578-6.016-4.125a2.484,2.484,0,0,0-.344,1.2c-.687,1.719-1.375,3.266-2.063,4.984l.516,1.547,12.891,35.751c1.2-1.031,2.406-2.063,3.438-3.094Z" transform="translate(124.924 122.167)"/>
        <path id="Path_79" data-name="Path 79" class="cls-9" d="M189.125,168.116c.172,0,.172.172.344.172,14.438,10.313,31.8,20.8,45.892,28.876.344.172.859.516,1.2.688a3.186,3.186,0,0,1-1.2.344,6.915,6.915,0,0,1,3.953.859c.172.172.344.172.688.344a27.669,27.669,0,0,0,8.594-3.266,15.108,15.108,0,0,0,1.719-1.031l-3.438-2.063-2.578-1.547-13.922-7.906-27.5-15.813-6.36-3.609-4.641-2.578-5.156-2.922-3.609-2.063-3.609,5.156c1.719,1.2,3.438,2.406,5.328,3.609C186.375,166.4,187.75,167.257,189.125,168.116Zm52.423,24.579a.6.6,0,0,1,.344.172c-.172,0-.344.172-.516.172C241.377,192.867,241.377,192.695,241.549,192.695Z" transform="translate(129.021 112.894)"/>
        <path id="Path_80" data-name="Path 80" class="cls-19" d="M119.441,200.283l8.594,21.657h0L223.6,278.66l34.72,20.626L220.679,194.955l-94.534-53.626h0l-37.47-20.969h0L87.3,119.5h0l8.766,22.344h0Z" transform="translate(62.748 86.227)"/>
        <path id="Path_81" data-name="Path 81" class="cls-14" d="M184.6,193.291a18.758,18.758,0,0,0,1.031-1.891l-.859.859A2.181,2.181,0,0,1,184.6,193.291Z" transform="translate(132.687 137.908)"/>
        <path id="Path_82" data-name="Path 82" class="cls-9" d="M171.757,149a52.959,52.959,0,0,0-4.984,2.75c-.172.172-.344.172-.687.344l-2.063,1.031a17.173,17.173,0,0,0-2.406,1.375c-1.2.688-2.406,1.375-3.781,2.063-.687.344-1.375.859-2.234,1.2l6.016,3.266,5.328,3.094A77.466,77.466,0,0,0,171.757,149Z" transform="translate(111.842 107.431)"/>
        <path id="Path_83" data-name="Path 83" class="cls-20" d="M94.672,390.02c5.5,2.406,16.844,8.594,22.86,8.594,27.329-8.422,42.8-24.751,71.674-41.595v-4.813h0a18.006,18.006,0,0,0-1.375-1.891l-.172-.344V349.8a57.641,57.641,0,0,1-11,2.578,83.9,83.9,0,0,1-17.36,11.344c-6.7,3.438-14.094,5.5-20.969,8.766-1.719-8.078-13.063-15.3-21.313-15.469a67.358,67.358,0,0,1-13.063,9.969c-2.578.172-4.3,1.891-5.672,4.125a31.438,31.438,0,0,0-2.406,8.594h0a18.941,18.941,0,0,0-.344,3.094c-.344,2.234-.516,4.3-.859,6.016,0,.344-.172.859-.172,1.2.172-.172.172-.172.172,0Z" transform="translate(67.923 251.765)"/>
        <path id="Path_84" data-name="Path 84" class="cls-3" d="M282.079,308.878c-6.36,3.609-12.891,6.875-19.079,9.8v32.141c0,9.453,7.047,17.016,15.813,17.016a15.46,15.46,0,0,0,11.344-4.984,17.492,17.492,0,0,0,4.641-12.032V300.8A147.357,147.357,0,0,1,282.079,308.878Z" transform="translate(189.04 216.544)"/>
        <path id="Path_86" data-name="Path 86" class="cls-12" d="M301.98,193.853c-9.281.516-20.454-2.406-28.188-4.3-4.641-1.2-9.453-3.953-14.266-5.156h0c-4.984,2.406-10.141,4.813-15.125,7.047,2.75,2.063,6.875,3.953,11.86,5.844,12.547,4.641,29.907,8.078,40.392,7.906,1.031-2.063,1.891-4.125,2.922-6.188.859-1.891,1.719-3.609,2.406-5.156Z" transform="translate(175.671 132.877)"/>
        <path id="Path_87" data-name="Path 87" class="cls-13" d="M271.507,74.07a24.934,24.934,0,0,0,5.672-10.657,5.885,5.885,0,0,0,3.266.516c4.641-1.2,5.156-11.688,6.36-16.329,1.547-6.016-5.5-6.875-7.735-4.469-.344,2.578-.687,7.219-1.031,11.688-2.063,1.891-4.3,3.609-6.531,5.5a41.9,41.9,0,0,0,0-8.078c-.688-5.5-2.578-8.422-3.61-12.032a83.845,83.845,0,0,1-2.578-9.11,23.161,23.161,0,0,1-6.016.344c-.859,4.641-1.2,8.25-1.2,8.25,2.406,5.156,1.2,5.328.344,12.032-.516,3.953.859,7.219,1.547,11.688,1.2,5.672.859,9.453,1.375,13.578.172.859.344,1.891.516,2.922,3.438-2.406,6.7-4.125,9.625-5.844Z" transform="translate(185.518 22.685)"/>
        <path id="Path_88" data-name="Path 88" class="cls-11" d="M290.754,215.829a32.829,32.829,0,0,0,2.578-4.813c0-.172.172-.344.344-.516l.344.172c1.375-2.922,2.578-5.672,3.953-8.422-10.485.172-27.845-3.438-40.392-7.906-4.984-1.891-9.11-3.781-11.86-5.844-.859.516-1.891.859-2.922,1.375,26.3,14.954,42.282,24.063,42.282,24.063s1.891,1.031,5.156,2.922c0-.172.172-.172.172-.344S290.582,216.173,290.754,215.829Z" transform="translate(174.521 135.824)"/>
        <path id="Path_89" data-name="Path 89" class="cls-21" d="M299.2,226.953h0c5.156-2.406,10.313-4.813,15.125-7.563a121.975,121.975,0,0,0,15.641-10.141c1.891-1.547,3.609-2.922,5.328-4.469,1.547-1.375,3.094-2.922,4.641-4.3,11.516-15.641,19.251-31.626,27.5-49.329.688-1.547,1.375-2.922,2.234-4.469-1.2-.172-2.234-.344-3.438-.516-13.063-2.063-28.36-7.219-38.157-15.985a18.818,18.818,0,0,0-1.891-1.719c-1.031-1.031-1.891-2.063-2.75-3.094l-.172-.172a1.033,1.033,0,0,0-.172.688c-.172.516-.516,1.2-.687,1.891a27.294,27.294,0,0,0-1.2,3.438h.172c2.75,5.156,10.141,8.594,14.438,13.407,6.188,7.391,3.609,14.954,1.547,23.891-6.7,29.735-31.282,41.079-54.486,56.376a102.569,102.569,0,0,1-9.8,6.016h0c-13.063,7.219-31.282,14.266-38.845.688-3.094,6.7-13.235,11.688-20.626,11.688-6.7.344-10.141-.344-13.922,2.75a3.356,3.356,0,0,1,1.2-.172h.172c-.172,0-.172.172-.344.344l-.344.344a.168.168,0,0,1,.172-.172l-.172.172a81.612,81.612,0,0,0-6.875,6.531A28.049,28.049,0,0,1,190.059,256v.859a3.528,3.528,0,0,1-.859,1.2.168.168,0,0,1,.172.172c1.031.516,2.063.859,2.922,1.2,2.234.688,4.3.344,6.875-1.031a22.568,22.568,0,0,1,5.5-4.3c1.547-.859,2.922-1.719,4.641-2.578s3.266-1.719,4.813-2.406c6.016.516,11.86,2.578,17.875,3.61h0c.172,0,.344.172.516.172h0a27.132,27.132,0,0,0,11.172-.344,7.443,7.443,0,0,0,.859-.172,40.142,40.142,0,0,0,8.422-2.75,136.134,136.134,0,0,0,13.407-6.36c3.781-2.063,7.391-3.953,10.656-5.672h0c.859-.344,1.719-.859,2.578-1.2l1.031-.516a.6.6,0,0,0,.344-.172h0c1.031-.516,1.891-.859,2.922-1.375C289.062,231.593,294.218,229.359,299.2,226.953Z" transform="translate(135.993 90.324)"/>
        <path id="Path_90" data-name="Path 90" class="cls-21" d="M293.7,53.825a25.381,25.381,0,0,1-.172-3.609,4.681,4.681,0,0,1-3.266-.516,21.641,21.641,0,0,1-5.672,10.657h0a61.315,61.315,0,0,1-9.453,5.156c-8.938,3.953-18.219,7.047-20.8,7.047h-1.547a1.033,1.033,0,0,1-.687-.172h-.172a2.18,2.18,0,0,1-1.031-.172,37.538,37.538,0,0,1-7.906-2.406,10.258,10.258,0,0,0-1.547,2.578,18.443,18.443,0,0,0-1.547,5.844.168.168,0,0,0,.172-.172.6.6,0,0,1-.172.344v.172a14.7,14.7,0,0,0,2.406,7.906,17.057,17.057,0,0,0,4.125,4.469,18.123,18.123,0,0,0,12.891,3.438h.516c2.234-.344,4.3-.688,6.531-1.2,11.344-2.578,20.969-7.906,29.391-13.407a12.723,12.723,0,0,0-.172-5.672,3.755,3.755,0,0,1-.516-.859,1.3,1.3,0,0,1-.344-.688,10.847,10.847,0,0,1-1.375-3.953,7.311,7.311,0,0,1-.344-1.891c0-.344-.172-.859-.172-1.2,0-.688-.172-1.2-.172-1.891,0-.859-.172-1.719-.172-2.578-.172-1.719-.344-3.609-.344-5.328A10.069,10.069,0,0,0,293.7,53.825Z" transform="translate(172.436 36.055)"/>
        <path id="Path_91" data-name="Path 91" class="cls-22" d="M240.072,66.5h0a.532.532,0,0,0-.172.344C239.9,66.672,240.072,66.672,240.072,66.5Z" transform="translate(172.436 48.131)"/>
        <path id="Path_92" data-name="Path 92" class="cls-11" d="M297.443,66.5c.172.344.344.516.516.859a12.657,12.657,0,0,1,.172,5.672c-8.422,5.5-18.047,10.828-29.391,13.407-2.063.516-4.3.859-6.531,1.2h-.516A18.123,18.123,0,0,1,248.8,84.207a16.824,16.824,0,0,1-4.125-4.469,17.738,17.738,0,0,1-2.406-7.906v-.516a11.9,11.9,0,0,1,1.547-5.844,10.259,10.259,0,0,1,1.547-2.578c-.172-.172-.516-.172-.687-.344-.344-.172-.859-.344-1.2-.516a17.866,17.866,0,0,1-3.266-2.234c-4.125,4.813-4.125,14.266-3.609,20.11.344,9.453,6.188,16.844,15.985,18.391,11,1.891,23.032-1.547,32.829-6.7,6.875-3.781,18.047-8.938,21.485-17.188-.687-.516-1.375-1.2-2.063-1.719-.687-.688-1.547-1.2-2.234-1.891l-.859-.859c-.516-.516-.859-1.031-1.375-1.547-.516-.688-1.2-1.375-1.719-2.063a25.26,25.26,0,0,1-1.719-2.234c-.344-.344-.516-.859-.859-1.2a6.029,6.029,0,0,1-.859-1.375,26.72,26.72,0,0,0,1.375,3.953A12.653,12.653,0,0,1,297.443,66.5ZM245.192,85.754Z" transform="translate(169.894 43.315)"/>
        <path id="Path_93" data-name="Path 93" class="cls-11" d="M223.229,127.284a118.834,118.834,0,0,1,6.36-25.61c4.641-12.547,9.8-24.579,17.188-35.579,3.266-4.641,10.313-16.672,16.157-19.766,0-.344-.172-.859-.172-1.2h0c-1.891-.859-4.3-1.547-6.875-2.406A53.8,53.8,0,0,0,246.6,41h0c-.344.172-.688.172-.859.344a23.268,23.268,0,0,0-7.906,5.156,48.95,48.95,0,0,0-3.953,4.469,2.372,2.372,0,0,0-.516.688,3.6,3.6,0,0,0-.688,1.031c-1.031,1.547-2.234,3.266-3.266,4.813l-5.156,7.735h0c-2.578,3.094-4.984,6.188-7.391,9.281-.687.859-1.375,1.719-2.063,2.75-2.234,2.922-4.3,5.844-6.7,8.766a99.49,99.49,0,0,1-9.8,11C197.79,110.1,211.025,123.33,223.229,127.284Z" transform="translate(142.528 29.801)"/>
        <path id="Path_94" data-name="Path 94" class="cls-23" d="M235.974,50.155a107.067,107.067,0,0,1,2.063-15.3c.516,6.188,7.563,10.657,11.516,14.266a42.656,42.656,0,0,0-2.234-6.016c2.406,3.266,5.844,6.188,8.078,8.25,2.578,2.234,8.594,6.188,11.86,6.188.172-2.578-2.578-5.844-3.609-8.25,4.3,1.547,8.594,3.438,13.063,3.953h0a24.045,24.045,0,0,0,6.016-.344c.688,2.922,1.719,5.672,2.578,9.11,1.031,3.609,2.922,6.531,3.609,12.032a31.477,31.477,0,0,1,0,8.078c2.234-1.719,4.469-3.609,6.531-5.5.344-4.469.688-8.938,1.031-11.688,2.234-2.234,9.281-1.547,7.735,4.469-1.2,4.813-1.891,15.125-6.36,16.329a25.385,25.385,0,0,1,.172,3.609,21.768,21.768,0,0,1-1.891,2.234c0,1.719.172,3.609.344,5.328h.172a4.89,4.89,0,0,0,2.234,0,14.321,14.321,0,0,0,2.578-.688h0l.516-2.578c.344.516.859,1.031,1.2,1.547h0l.172-.172c2.578-1.719,4.469-4.3,4.641-6.7.172-2.922-.516-5.328-.688-8.078a8.284,8.284,0,0,1,0-2.063c4.125-9.11,7.735-17.875,11.344-27.673,1.2-3.094,2.234-6.36,3.438-9.8,4.125-12.375-6.016-26.469-18.563-34.376h0l-.172.172C281.006-7.94,242.162,2.029,234.943,26.436a31.136,31.136,0,0,0-1.2,9.969A117,117,0,0,0,234.6,56a61.366,61.366,0,0,0,1.891,9.453c0-.172.172-.516,0-.859C237.349,56.859,238.38,56.515,235.974,50.155Z" transform="translate(167.94 0.192)"/>
        <path id="Path_95" data-name="Path 95" class="cls-24" d="M309.206,102.955c-9.8,5.156-22,8.594-32.829,6.7-9.8-1.547-15.641-8.938-15.985-18.391-.344-5.844-.344-15.3,3.61-20.11a3.841,3.841,0,0,1-1.547-2.922,27.92,27.92,0,0,1-.688-3.266c-.687-4.125-.516-7.735-1.031-12.719-.172-1.547-.344-3.266-.688-5.156A19.985,19.985,0,0,0,259.361,44C253.345,47.094,246.3,59.125,243.2,63.766c-7.391,11-12.547,23.032-17.188,35.579a118.836,118.836,0,0,0-6.36,25.61c-.516,3.438-.859,6.875-1.2,10.313h.344v7.391h0c0,6.531,0,13.063-.172,19.594,0,4.3-.172,8.422-.172,12.719,0,3.266-.172,6.531-.172,9.969-.172,4.813-.172,9.453-.344,14.266-1.891,4.641-3.781,9.281-5.844,13.922-2.75,6.36-5.672,12.719-8.594,19.422,8.938,16.5,28.016,24.407,44.689,31.8a18.209,18.209,0,0,1,2.063-1.719h0c.516-.344,1.031-.859,1.547-1.2,15.3-11.172,33.517-19.594,48.3-31.282l-.516-.859c.516-4.984,2.578-11.344,4.813-17.7,2.063-5.844,4.3-11.86,5.5-17.188.516-1.719.859-3.438,1.375-5.156.344-1.2.859-2.406,1.2-3.438.172-.516.516-1.2.687-1.891a29.82,29.82,0,0,1-6.016-6.36,67.988,67.988,0,0,0,3.781-5.844c3.781-6.7,5.844-14.266,8.25-21.485,3.094-9.453,6.531-18.563,14.094-25.438,5.5-5.156,13.235-11,21.485-10.141,6.531.859,12.032,6.016,15.469,11.86,0-.172-.172-.344-.344-.516.172.172.172.344.344.516a65.218,65.218,0,0,0-7.735-11.172v-.172c-.859-.516-1.891-1.031-2.922-1.719a.168.168,0,0,1-.172-.172c-.344-.172-.516-.516-.859-.688-1.891-1.547-3.094-3.438-4.813-5.328-1.547-1.719-3.438-3.438-5.156-5.328l-2.406-2.406c-1.719-1.719-3.438-3.438-5.156-4.985a57.227,57.227,0,0,0-4.813-4.3c-.859-.688-1.891-1.547-2.75-2.234-.516-.516-1.2-.859-1.719-1.375-.344-.344-.688-.516-1.031-.859C327.081,94.017,315.909,99.173,309.206,102.955Zm-59.47,81.815v.688c-.172-.344-.172-.688-.344-1.031C249.564,184.6,249.736,184.6,249.736,184.769Z" transform="translate(146.272 31.958)"/>
        <path id="Path_96" data-name="Path 96" class="cls-25" d="M230.544,126.044l-.344-.344c.172.344.172.688.344,1.031Z" transform="translate(165.464 90.683)"/>
        <path id="Path_97" data-name="Path 97" class="cls-26" d="M219.4,187.5Z" transform="translate(157.701 135.105)"/>
        <path id="Path_98" data-name="Path 98" class="cls-26" d="M214.272,199.444c.172,0,.172-.172.344-.172h0a.631.631,0,0,1-.516-.172h0l.172.344Z" transform="translate(153.891 143.443)"/>
        <path id="Path_99" data-name="Path 99" class="cls-12" d="M201.2,162.566a.631.631,0,0,1,.172.516c6.36,12.375,21.141,21.313,34.032,27.673,1.719.859,3.438,1.719,4.984,2.406,3.094-2.578,6.188-5.156,8.938-7.563-16.5-7.391-35.579-15.3-44.689-31.8-1.031,2.922-2.234,5.672-3.438,8.766Z" transform="translate(144.619 110.881)"/>
        <path id="Path_100" data-name="Path 100" class="cls-5" d="M525.263,292.8c-.344,18.563-11.344,38.673-41.423,58.783a146.9,146.9,0,0,1-12.719,7.906c-6.36,3.609-12.891,6.875-19.079,9.8C391.712,396.962,331.9,393.352,286.694,382.7c-1.031-.172-2.063-.516-2.922-.688-4.813-1.2-9.453-2.578-13.922-3.781-2.922-.859-5.5-1.719-8.25-2.578a293.307,293.307,0,0,1-40.735-16.329,129.672,129.672,0,0,1-11.688-6.188s-1.375-.859-4.125-2.406c-8.422-4.813-29.048-16.5-57.236-32.657V317.9c-29.735-17.016-55.173-31.626-73.564-42.111C58.782,266.849,48.3,261,45.031,259.114a4.757,4.757,0,0,0-1.2-.687S2.061,231.613,1.718,193.8c-10.657,48.126,31.454,83.19,40.22,89.893a11.013,11.013,0,0,1,1.547,1.2s11.172,6.531,30.423,17.36v.516c4.3,2.406,8.594,4.984,13.063,7.563v-.344c5.844,3.438,11.86,6.7,17.7,10.141v.172c50.017,28.7,88.174,50.361,100.206,57.236,2.578,1.547,3.953,2.234,3.953,2.234s2.406,1.375,6.875,3.781A285.406,285.406,0,0,0,254.9,400.227c.688.344,1.547.516,2.234.859,6.016,2.063,12.547,3.953,19.422,5.844,4.125,1.031,8.25,2.063,12.719,3.094,1.031.172,2.063.516,3.266.687,7.047,1.547,14.266,2.75,22,3.781a262.162,262.162,0,0,0,44.173,2.578c3.781-.172,7.735-.344,11.516-.516a209.926,209.926,0,0,0,24.923-3.094,234.515,234.515,0,0,0,56.892-17.532q9.539-4.383,19.079-9.8c4.641-2.75,8.766-5.328,12.719-7.906a118.636,118.636,0,0,0,18.219-14.61c21.829-21.829,24.923-44.173,23.2-70.814Z" transform="translate(-0.002 139.633)"/>
        <path id="Path_101" data-name="Path 101" d="M205.5,159.2c-.172.172-.344.172-.516.344h0c-1.375.859-2.578,1.547-3.953,2.234a4.308,4.308,0,0,0-1.2.688l-4.125,2.063h0c13.063,7.563,28.876,16.5,46.579,26.641a12.98,12.98,0,0,0,2.406-1.891c-1.547-.687-3.266-1.547-4.985-2.406C226.466,180.513,211.857,171.575,205.5,159.2Z" transform="translate(140.665 114.763)"/>
        <path id="Path_102" data-name="Path 102" class="cls-26" d="M195.7,195.887l.344-.344.344-.344h-.172c0,.172-.172.344-.516.688Z" transform="translate(140.665 140.64)"/>
        <path id="Path_103" data-name="Path 103" class="cls-26" d="M195.009,195.9c-.172,0-.344.172-.516.172l-1.547.516a10.955,10.955,0,0,1-1.2.344c-.172,0-.172,0-.344.172h.172a25.058,25.058,0,0,0,3.266-1.2Z" transform="translate(137.575 141.143)"/>
        <path id="Path_104" data-name="Path 104" class="cls-3" d="M185.238,159.913l5.156,2.922,4.641,2.578,6.36,3.609h0l27.5,15.813,13.922,7.906,2.578,1.547,3.438,2.063,3.094-2.063a.168.168,0,0,0,.172-.172c-17.7-10.141-33.345-19.079-46.579-26.641L183.863,155.1c-.687.859-1.375,1.891-2.063,2.75Z" transform="translate(130.674 111.816)"/>
        <path id="Path_105" data-name="Path 105" class="cls-21" d="M228,110.641c1.2,5.844-10.141,19.594-14.094,23.032-1.891,1.547-6.7,3.094-7.906,4.985-1.891,3.266.516,12.891-1.2,17.188-3.609,11.688-11.344,24.235-17.7,34.892-1.891,3.094-3.781,6.016-5.672,9.11-3.953,6.188-8.078,12.547-11.516,18.563l.344,1.031L174.2,230.1l2.406,6.7c.688-1.719,1.375-3.266,2.063-4.984a2.484,2.484,0,0,0,.344-1.2c1.031-2.406,1.719-4.984,2.578-7.563a.6.6,0,0,1,.172-.344,40.574,40.574,0,0,1,4.813-8.938l3.609-5.156c.688-.859,1.375-1.719,2.063-2.75h0l5.156-6.7a36.816,36.816,0,0,0,2.234-3.266,96.79,96.79,0,0,0,6.7-12.547c.344-.688.688-1.375,1.031-2.234.688-1.547,1.2-3.266,1.891-4.813,3.438-9.281,6.36-18.907,9.453-27.673a17.343,17.343,0,0,0,1.2-2.578c.172-.172.172-.344.344-.688h.516c1.547-3.094,4.3-5.844,7.219-8.594a51.917,51.917,0,0,0,6.016-6.36c.516-.688,1.031-1.547,1.547-2.406a38.978,38.978,0,0,0,3.266-5.844c.688-1.547,1.375-2.922,2.063-4.469.344-.688.688-1.547,1.031-2.234a8.029,8.029,0,0,1,.859-1.719h0v-7.391h-.344a15.673,15.673,0,0,1-7.219-2.406c-3.609-2.063-6.875-5.156-9.969-7.735A73.116,73.116,0,0,1,215.276,84h0v.172c-.172.172-.172.344-.344.516l-.172.172v.172c-.687,1.375-1.547,2.75-2.234,4.3-.687,1.2-1.2,2.406-1.891,3.609C215.964,97.578,226.964,105.313,228,110.641Z" transform="translate(122.121 60.709)"/>
        <path id="Path_106" data-name="Path 106" class="cls-27" d="M181,114.1h0v.172h0Z" transform="translate(130.099 82.345)"/>
        <path id="Path_107" data-name="Path 107" class="cls-3" d="M182.3,169.195h0c.688-.344,1.375-.859,2.234-1.2,1.375-.687,2.578-1.375,3.781-2.063.859-.516,1.719-.859,2.406-1.375l2.063-1.031c.172-.172.344-.172.688-.344,2.063-1.031,3.781-2.063,4.984-2.75h0c.172-.859.516-1.891.688-2.75s.516-1.719.688-2.75A287.266,287.266,0,0,0,118.7,133.1l41.251,23.376Z" transform="translate(85.318 96.002)"/>
        <path id="Path_108" data-name="Path 108" class="cls-3" d="M149.6,314.2v63.424h0v79.752c0,9.453,7.219,17.016,15.985,17.016a15.751,15.751,0,0,0,11.344-4.985,17.636,17.636,0,0,0,4.813-12.032V323.138c-4.3-1.031-8.594-2.063-12.719-3.094C162.147,318.153,155.616,316.091,149.6,314.2Z" transform="translate(107.529 226.176)"/>
        <path id="Path_109" data-name="Path 109" class="cls-3" d="M42.767,302.733s.344.172,1.2.688c3.438,1.891,13.75,7.735,29.22,16.672,18.391,10.485,43.829,25.094,73.564,42.11v.172c28.36,16.157,48.986,27.845,57.236,32.657,2.75,1.547,4.125,2.406,4.125,2.406s4.125,2.406,11.688,6.188a302.548,302.548,0,0,0,40.735,16.329l8.25,2.578c4.469,1.375,9.11,2.578,13.922,3.781,1.031.172,2.063.516,2.922.688,45.2,10.657,105.19,14.094,165.348-13.407a200.65,200.65,0,0,0,19.079-9.8,146.9,146.9,0,0,0,12.719-7.906c30.251-20.11,41.079-40.22,41.423-58.783.344-18.735-10.141-35.751-22.86-49.329a159.672,159.672,0,0,0-14.954-13.922c-4.641-3.953-9.281-7.219-13.235-10.141-3.781-2.578-7.047-4.813-9.625-6.36-3.266-1.891-5.156-2.922-5.156-2.922s-15.985-9.11-42.282-24.063c-.172,0-.344.172-.516.172l-1.031.516c-.859.344-1.719.859-2.578,1.2h0l4.3,2.406,1.375.859h0l-1.2.688a6.969,6.969,0,0,1,.859,1.547A11.115,11.115,0,0,1,417.98,240a12.561,12.561,0,0,1-.344,4.813l-97.8,54.83-40.392-24.063-23.719-14.094-19.079-11.344h0l-48.3-28.7s-1.2-4.985,1.031-8.766h0l-8.594-21.657-23.2-58.611h0A217.5,217.5,0,0,0,64.94,159.557C15.954,187.4.829,214.73,1,237.934,1.344,275.748,42.767,302.733,42.767,302.733Z" transform="translate(0.715 95.499)"/>
        <path id="Path_110" data-name="Path 110" d="M120.919,349.486c3.266-12.891,6.188-27.5,9.11-42.97-4.469-2.234-6.875-3.781-6.875-3.781s-1.375-.859-3.953-2.234v.344c.172,20.282.859,38.157,1.719,48.642Z" transform="translate(85.678 216.329)"/>
        <path id="Path_111" data-name="Path 111" class="cls-20" d="M141.4,360.2c16.5-3.094,21.829-21.141,27.329-35.923.344-1.2.859-2.406,1.2-3.609A285.4,285.4,0,0,1,130.747,304c-3.094,15.469-5.844,29.907-9.11,42.97h0c-.688,2.578-1.375,5.156-1.891,7.563-.516,1.719-1.031,3.609-1.547,5.156C125.935,360.892,135.044,361.408,141.4,360.2Z" transform="translate(84.959 218.845)"/>
        <path id="Path_112" data-name="Path 112" d="M118.163,364.648c7.219,3.094,13.235,11.172,21.313,13.063,5.5,1.375,14.094,1.375,21.829.344a47.051,47.051,0,0,0,11-2.578,4.247,4.247,0,0,0,1.547-.687v-60.33a11.931,11.931,0,0,1-2.234-.859,29.613,29.613,0,0,1-1.2,3.609c-5.5,14.782-11,32.829-27.329,35.923-6.531,1.2-15.469.688-23.376-.344-.688,2.063-1.2,3.953-1.891,5.844-.516,1.719-1.2,3.438-1.719,4.985a11.55,11.55,0,0,0,2.063,1.031Z" transform="translate(83.449 225.745)"/>
        <path id="Path_113" data-name="Path 113" class="cls-21" d="M107.6,361.347c8.078.172,19.422,7.391,21.313,15.469,6.875-3.266,14.094-5.156,20.969-8.766a83.9,83.9,0,0,0,17.36-11.344c-7.563,1.031-16.157,1.031-21.829-.344-8.078-1.891-14.094-9.969-21.313-13.063h0c-.344.516-.859.859-1.2,1.375-1.031,1.031-1.891,2.063-2.922,3.266h0C116.022,352.41,112.069,357.05,107.6,361.347Z" transform="translate(77.34 247.093)"/>
        <path id="Path_114" data-name="Path 114" class="cls-24" d="M117.46,395.595c-6.016,0-17.36-6.188-22.86-8.594h0a30.519,30.519,0,0,0,1.719,7.391l1.031,2.578v.172l-.172.172c6.7,4.984,15.3,8.078,23.2,6.016a67.992,67.992,0,0,0,7.735-2.578c8.766-3.438,17.36-8.938,24.751-14.094,6.188-4.3,12.547-8.594,18.735-12.891,1.375-1.031,2.75-1.891,4.125-2.922,1.547-1.031,3.094-2.234,4.641-3.266,2.234-1.547,4.469-3.266,6.531-4.984a18.27,18.27,0,0,0,1.891-1.547V354C160.43,370.844,144.789,387.173,117.46,395.595Z" transform="translate(67.995 254.784)"/>
        <path id="Path_115" data-name="Path 115" class="cls-20" d="M105.707,370.569a67.361,67.361,0,0,0,13.063-9.969c4.469-4.3,8.422-8.938,12.375-13.407h0c.172-.516.344-.859.516-1.375l.516-1.547-.344-.172c-10.141,11.688-20.8,8.938-34.2,16.844a8.355,8.355,0,0,0-2.922,2.578l-.516.516a.168.168,0,0,1-.172.172,10.993,10.993,0,0,0-1.719,4.469,57.852,57.852,0,0,0,7.563,5.672A8.27,8.27,0,0,1,105.707,370.569Z" transform="translate(66.342 247.668)"/>
        <path id="Path_116" data-name="Path 116" class="cls-24" d="M97.675,372.866a26.366,26.366,0,0,1,2.406-8.594,41.4,41.4,0,0,1-7.563-5.672,14.914,14.914,0,0,0-.172,4.813,15.2,15.2,0,0,0,5.328,9.453Z" transform="translate(66.295 258.091)"/>
        <path id="Path_117" data-name="Path 117" class="cls-28" d="M125.8,142.507h0l94.362,53.626L257.8,300.464l7.735-4.3-6.188-17.532L249.9,252.682l-1.031-2.75-12.891-35.751-.516-1.547-2.406-6.7L229.1,195.274l-.344-1.031-.172-.172-13.063-7.391-5.328-3.094-6.016-3.266h0L181.833,167.6l-41.251-23.376h0l-26.813-15.3L95.377,118.444h0s-1.031-.172-2.406-.344h-.344c-1.547,0-3.266,0-4.125.859a2.218,2.218,0,0,0-.172,2.578h0Z" transform="translate(63.265 85.22)"/>
        <path id="Path_118" data-name="Path 118" class="cls-3" d="M25.947,247.2s-.516-.344-1.547-1.2V380.066c0,9.453,7.219,17.016,15.985,17.016A15.751,15.751,0,0,0,51.729,392.1a17.636,17.636,0,0,0,4.813-12.032V264.735C37.119,253.735,25.947,247.2,25.947,247.2Z" transform="translate(17.536 177.154)"/>
      </g>
      <g id="XMLID_3_" transform="translate(381.45 547.251)">
        <g id="Group_7" data-name="Group 7">
          <path id="Path_119" data-name="Path 119" class="cls-29" d="M310.285,333.71a3.749,3.749,0,0,1,.688.859,27.437,27.437,0,0,0-.172-9.969c-2.063,1.375-3.953,3.781-5.5,5.672C306.847,331.3,308.566,332.335,310.285,333.71Z" transform="translate(-162.005 -313.6)"/>
          <path id="Path_120" data-name="Path 120" class="cls-29" d="M279.647,322.5c-.344,3.953-1.2,7.735-1.547,11.516a36.3,36.3,0,0,1,5.672-3.094A34.876,34.876,0,0,0,279.647,322.5Z" transform="translate(-181.556 -315.109)"/>
          <path id="Path_121" data-name="Path 121" class="cls-30" d="M314.819,319c-5.156,1.547-9.8,8.594-12.719,12.719a50.154,50.154,0,0,1,5.328,2.406c1.719-1.891,3.438-4.3,5.5-5.672a21.566,21.566,0,0,1,.172,9.969,36.338,36.338,0,0,1,4.469,6.016C317.569,337.047,319.46,325.7,314.819,319Z" transform="translate(-164.305 -317.625)"/>
          <path id="Path_122" data-name="Path 122" class="cls-31" d="M279.528,318.2c-5.328,6.188-4.984,16.157-5.328,24.579a40.753,40.753,0,0,1,6.7-5.5c.344-3.781,1.031-7.563,1.547-11.516a29.542,29.542,0,0,1,4.125,8.422c1.547-.687,3.266-1.375,4.813-1.891C289.154,326.45,284.857,320.091,279.528,318.2Z" transform="translate(-184.359 -318.2)"/>
          <path id="Path_123" data-name="Path 123" class="cls-31" d="M297.1,352.985c1.031,3.094,4.125,8.078,7.563,7.563,3.266-.516,6.359-7.219,5.5-10.141l.172-.344C306.725,348.688,300.022,351.266,297.1,352.985Z" transform="translate(-167.899 -295.577)"/>
          <path id="Path_124" data-name="Path 124" class="cls-32" d="M240.911,419.2c-4.641,3.266-10.313,11.688-9.8,18.735a30.109,30.109,0,0,0,9.625,3.094c8.938,1.2,25.094-.687,15.469-12.719C252.083,423.669,246.239,421.606,240.911,419.2Z" transform="translate(-215.353 -245.602)"/>
          <path id="Path_125" data-name="Path 125" class="cls-31" d="M229.785,402.728c-6.188,7.735-8.422,21.657-7.735,31.282,1.2,10.656,7.047,19.079,15.469,23.548-.516-7.047,5.156-15.641,9.8-18.735-5.672-2.578-11-5.844-12.891-13.578-2.75-10.657,3.094-15.813,10.657-20.454a109.538,109.538,0,0,1,.344-12.891C237.347,394.994,232.707,398.775,229.785,402.728Z" transform="translate(-221.93 -265.225)"/>
          <path id="Path_126" data-name="Path 126" class="cls-32" d="M256.2,412.1h0c0,.344,0,.516.172.688a23.706,23.706,0,0,1,4.3,3.609c2.063,2.063,3.094,3.094,2.75,4.813a94.986,94.986,0,0,0,9.453,3.61h.688a69.924,69.924,0,0,1-.859-8.422h-.172C268.06,417.944,259.294,415.194,256.2,412.1Z" transform="translate(-197.297 -250.705)"/>
          <path id="Path_127" data-name="Path 127" class="cls-32" d="M279.9,427.781a11.3,11.3,0,0,1,1.375,6.875c6.36,1.031,15.641-1.891,14.61-9.453-.344-2.922-3.094-5.156-6.188-6.7C288.494,422.8,284.2,426.922,279.9,427.781Z" transform="translate(-180.262 -246.105)"/>
          <path id="Path_128" data-name="Path 128" class="cls-31" d="M261.275,420.754h0c3.266,3.094,12.032,5.672,16.329,4.125h.172c0-1.031-.172-2.063-.172-3.266a7.86,7.86,0,0,0-2.406-2.922,13.2,13.2,0,0,0-4.125-2.063c2.063-2.406,5.156-4.3,6.875-7.047.172-3.094.516-6.188.688-9.281-7.563,5.5-13.407,8.422-23.2,9.281a13.587,13.587,0,0,1-6.531,4.469,81.182,81.182,0,0,1,12.547,7.047A.532.532,0,0,0,261.275,420.754Z" transform="translate(-202.545 -259.187)"/>
          <path id="Path_129" data-name="Path 129" class="cls-33" d="M278.763,421.6a13.076,13.076,0,0,1-2.063,3.266,6.785,6.785,0,0,0,5.5.688A18.3,18.3,0,0,0,278.763,421.6Z" transform="translate(-182.562 -243.876)"/>
          <path id="Path_130" data-name="Path 130" class="cls-33" d="M290.879,431.163a9.173,9.173,0,0,0-1.375-6.875,7.651,7.651,0,0,1-5.5-.687c-4.125,4.3-12.032,6.359-17.7,3.953,2.063,6.531,7.735,10.828,16.844,9.625C287.957,436.491,290.363,434.085,290.879,431.163Z" transform="translate(-190.038 -242.439)"/>
          <path id="Path_131" data-name="Path 131" class="cls-33" d="M256.3,412.6a7.945,7.945,0,0,1,1.031,4.469,24.317,24.317,0,0,0,6.016,3.953c.344-1.719-.687-2.75-2.75-4.813A17.747,17.747,0,0,0,256.3,412.6Z" transform="translate(-197.226 -250.346)"/>
          <path id="Path_132" data-name="Path 132" class="cls-33" d="M233.867,404.7c-2.063,3.438,1.2,9.625,5.156,12.375,8.078,5.844,17.016,10.485,25.782,15.125,4.3,2.406,9.8,3.094,13.407-1.891a9.667,9.667,0,0,0,1.547-3.609,24.317,24.317,0,0,1-6.016-3.953c-.516,5.844-11.172,4.125-17.016,1.031C249.68,420.341,237.132,412.091,233.867,404.7Z" transform="translate(-213.809 -256.024)"/>
          <path id="Path_133" data-name="Path 133" class="cls-32" d="M269.6,392a23.664,23.664,0,0,1-6.7,4.3,21.273,21.273,0,0,0,5.844,7.219C269.088,399.735,269.431,395.781,269.6,392Z" transform="translate(-192.482 -265.153)"/>
          <path id="Path_134" data-name="Path 134" class="cls-32" d="M260.778,397.938c-.687,4.125-3.781,11.172-8.078,15.985,9.625-.859,15.641-3.781,23.2-9.281,0-1.031.172-2.063.172-2.922a21.274,21.274,0,0,1-5.844-7.219C267.138,395.875,263.7,396.906,260.778,397.938Z" transform="translate(-199.813 -263.356)"/>
          <path id="Path_135" data-name="Path 135" class="cls-31" d="M286.532,400.722a36.364,36.364,0,0,0-3.609,1.891c-3.266,12.375-6.36,24.579-8.422,37.126h.172a12.28,12.28,0,0,1,5.844,2.75,13.8,13.8,0,0,1,3.266,3.953c4.3-1.031,8.766-4.984,9.8-9.11a17.53,17.53,0,0,0-8.422-1.891v-1.2c.688-14.094,8.594-27.844,10.657-41.939A100.441,100.441,0,0,1,286.532,400.722Z" transform="translate(-184.144 -264.937)"/>
          <path id="Path_136" data-name="Path 136" class="cls-32" d="M292.119,411.017c7.047-7.047,13.063-15.469,13.407-25.094h.344c.344-6.531,4.125-13.063,7.391-19.422a74.006,74.006,0,0,1-14.266.859c-2.75-.172-5.328-.344-7.906-.688-.516,3.266-2.578,6.7-3.438,9.969-.859,5.156-.516,11.344-1.2,16.844-.516,5.156-.344,10.485-2.234,15.3-.687,1.891-2.234,3.609-3.266,5.5l.344.172c-.688,2.234-1.2,4.469-1.891,6.7a36.37,36.37,0,0,1,3.609-1.891A98.816,98.816,0,0,0,292.119,411.017Z" transform="translate(-180.621 -283.482)"/>
          <path id="Path_137" data-name="Path 137" class="cls-30" d="M312.362,370.684c1.031,3.094,4.125,8.078,7.563,7.563,3.266-.516,6.359-7.219,5.5-10.141l.172-.344C321.987,366.387,315.284,368.965,312.362,370.684ZM336.6,340.261c11.172,18.735,7.219,46.407-16.844,55.173q-1.8.516-4.125,1.031a73.994,73.994,0,0,1-14.266.859c-5.672-1.2-11.86-6.875-16.157-9.8-6.36-4.3-8.938-10.485-9.281-17.875-.516-15.3,2.406-31.282,14.782-40.564a9.534,9.534,0,0,0,1.375-1.031,20.863,20.863,0,0,0,2.406-1.719,44.891,44.891,0,0,1,26.469,1.547,50.157,50.157,0,0,1,5.328,2.406,32.184,32.184,0,0,1,4.984,3.438,3.75,3.75,0,0,1,.688.859A19.136,19.136,0,0,1,336.6,340.261Z" transform="translate(-183.16 -313.276)"/>
          <path id="Path_138" data-name="Path 138" class="cls-31" d="M284.569,331.285a40.757,40.757,0,0,0-6.7,5.5A30.171,30.171,0,0,0,269.1,357.41c0,7.219.687,14.954,3.609,21.313a27.647,27.647,0,0,0,5.156,7.735,26.615,26.615,0,0,0,9.8,6.188,43.21,43.21,0,0,0,10.828,2.75,61.35,61.35,0,0,0,7.906.688c-5.672-1.2-11.86-6.875-16.157-9.8-6.36-4.3-8.938-10.485-9.282-17.875-.516-15.3,2.406-31.282,14.782-40.564l-.516-1.547a40.024,40.024,0,0,0-4.813,1.891A37.065,37.065,0,0,0,284.569,331.285Z" transform="translate(-188.025 -312.378)"/>
          <path id="Path_139" data-name="Path 139" class="cls-34" d="M237.038,401.244a108.582,108.582,0,0,0-.344,12.891c0,2.406.172,4.813.344,7.047-1.719.344-2.922,1.031-3.438,2.063,3.266,7.563,15.813,15.641,22.86,19.079,6.016,3.094,16.672,4.641,17.016-1.031a8.234,8.234,0,0,0-1.031-4.469,129.421,129.421,0,0,0-12.547-7.047,14.892,14.892,0,0,0,6.531-4.469,38.976,38.976,0,0,0,8.078-15.985,3.783,3.783,0,0,0,.172-1.375c.688-9.625-2.75-24.751-12.719-29.048-1.375,3.094-2.406,6.875-4.641,9.453-5.672,6.016-13.235,8.078-20.11,11.344A5.3,5.3,0,0,1,237.038,401.244Z" transform="translate(-213.542 -274.569)"/>
          <path id="Path_140" data-name="Path 140" class="cls-31" d="M269.2,367.041l-.172-.172c-2.234,3.781-6.188,7.735-7.735,12.032-1.031,2.922-1.031,6.7-.859,10.313a10.113,10.113,0,0,0,2.922-.344c4.3-1.2,8.078-3.094,10.828-6.875,3.781-5.328,4.469-13.407,9.969-17.36A23.472,23.472,0,0,1,279,356.9a30.061,30.061,0,0,0-6.531,5.844A40.376,40.376,0,0,0,269.2,367.041Z" transform="translate(-194.314 -290.383)"/>
          <path id="Path_141" data-name="Path 141" class="cls-31" d="M260.451,394.655c1.719-4.3,4.125-7.735,10.828-6.7,3.438.344,4.469,1.375,6.875,1.547a33.048,33.048,0,0,1,.859-10.313c1.547-4.3,5.328-8.078,7.735-12.032l.172.172a40.361,40.361,0,0,1,3.266-4.3c-7.906-16.5-37.47,3.609-43.829,13.235-5.5,9.281-9.281,24.407-10.656,39.36,6.875-3.266,14.438-5.328,20.11-11.344C258.044,401.53,259.247,397.749,260.451,394.655Z" transform="translate(-212.033 -290.496)"/>
          <path id="Path_142" data-name="Path 142" class="cls-35" d="M260.928,374.956c-6.7-.859-8.938,2.578-10.828,6.7,9.969,4.469,13.407,19.594,12.719,29.048a4.271,4.271,0,0,1-.172,1.375c2.922-1.031,6.36-2.063,9.625-3.438-3.953-7.907-4.125-17.876-4.3-26.3,0-1.719-.172-3.781-.172-5.844C265.4,376.331,264.366,375.127,260.928,374.956Z" transform="translate(-201.682 -277.5)"/>
          <path id="Path_143" data-name="Path 143" class="cls-36" d="M269.753,437.643c-.172,3.953-.344,7.906-.344,11.86a21.916,21.916,0,0,0,.172,3.266,69.928,69.928,0,0,0,.859,8.422,1.034,1.034,0,0,0,.172.688,20.151,20.151,0,0,0,.172,10.141c5.672,2.406,13.578.344,17.7-3.953a13.078,13.078,0,0,0,2.063-3.266,12.28,12.28,0,0,0-5.844-2.75h-.172c2.063-12.547,5.156-24.923,8.422-37.126.688-2.234,1.2-4.469,1.891-6.7l-.344-.172c1.031-1.891,2.578-3.781,3.266-5.5,2.063-4.984,1.719-10.141,2.234-15.3.516-5.5.344-11.516,1.2-16.844.688-3.266,2.922-6.7,3.438-9.969a43.213,43.213,0,0,1-10.828-2.75,25.26,25.26,0,0,1-9.8-6.188c-5.5,3.953-6.36,12.032-9.969,17.36-2.75,3.953-6.531,5.844-10.828,6.875a9.544,9.544,0,0,1-2.922.344c0,2.063.172,3.953.172,5.844.344,8.422.344,18.563,4.3,26.3a26.378,26.378,0,0,0,6.7-4.3c-.172,3.781-.516,7.735-.859,11.516,0,1.031-.172,2.063-.172,2.922C270.269,431.455,269.925,434.549,269.753,437.643Z" transform="translate(-194.35 -287.076)"/>
        </g>
      </g>
      <g id="Group_9" data-name="Group 9" transform="translate(393.945 335.324)">
        <g id="XMLID_2_">
          <g id="Group_8" data-name="Group 8">
            <path id="Path_144" data-name="Path 144" class="cls-37" d="M259.5,260.991a7.049,7.049,0,0,0,.172-1.891c0,.516.172.859.172,1.547A.37.37,0,0,0,259.5,260.991Z" transform="translate(-207.421 -148.753)"/>
            <path id="Path_145" data-name="Path 145" class="cls-38" d="M268.7,264.191v.516a9.348,9.348,0,0,1-1.375,4.984,14.734,14.734,0,0,0-5.156-5.156c-4.125-2.75-9.625-4.125-15.469-4.469a35.743,35.743,0,0,0,2.063-8.766,33.254,33.254,0,0,1,13.578,4.3c3.438,2.234,5.5,4.984,6.016,7.906h0c.344.344.344.516.344.688Z" transform="translate(-216.621 -154.36)"/>
            <path id="Path_146" data-name="Path 146" class="cls-39" d="M268,266.025c-1.375,2.75-3.953,5.156-7.907,7.219a20.178,20.178,0,0,1-1.891.859c2.75-1.547,4.469-3.438,4.469-5.672,0-4.469-7.219-8.078-16.672-8.766.516-1.2,1.031-2.234,1.547-3.266,5.844.344,11.344,1.719,15.469,4.469A14.121,14.121,0,0,1,268,266.025Z" transform="translate(-217.124 -150.694)"/>
            <path id="Path_147" data-name="Path 147" class="cls-40" d="M244.472,251.1a47.783,47.783,0,0,1,7.735-20.454,27.294,27.294,0,0,0,4.469-9.282,41.153,41.153,0,0,0-2.063-26.469,44.469,44.469,0,0,1,4.984,13.235c1.2,6.875-1.891,17.016-2.922,19.422a86.416,86.416,0,0,1-7.047,12.2,32.53,32.53,0,0,0-5.328,11.688C244.472,251.448,244.472,251.276,244.472,251.1Z" transform="translate(-218.346 -194.9)"/>
            <path id="Path_148" data-name="Path 148" class="cls-40" d="M254.414,203.3c2.578,10.313-.516,15.813-6.36,25.61-5.672,9.625-4.641,19.766-1.031,29.907,3.094,7.735,7.391,16.844,6.531,26.985a28.177,28.177,0,0,1-2.063,8.766,14.057,14.057,0,0,1-1.547,3.266c-.516.859-1.031,1.891-1.547,2.922a41.614,41.614,0,0,1-4.469,6.016c1.2-2.063,2.406-3.953,3.438-6.016.516-1.031.859-2.063,1.375-2.922a25.059,25.059,0,0,0,1.2-3.266,39.546,39.546,0,0,0,1.719-8.766,38.824,38.824,0,0,0-4.469-19.938c-5.156-9.625-8.078-19.938-6.016-30.423,2.063-10.141,10.141-15.125,12.2-25.266A44.146,44.146,0,0,0,254.414,203.3Z" transform="translate(-221.069 -188.862)"/>
            <path id="Path_149" data-name="Path 149" class="cls-41" d="M250.8,273.407c-8.422,0-15.3-3.094-15.3-6.7s6.875-6.7,15.3-6.7h.172a68.278,68.278,0,0,1-3.438,6.016A45.26,45.26,0,0,0,252,260c7.906.172,14.094,3.094,14.094,6.531C266.095,270.313,259.219,273.407,250.8,273.407Z" transform="translate(-224.672 -148.106)"/>
            <path id="Path_150" data-name="Path 150" class="cls-40" d="M245.953,254.026c2.75,5.5,5.156,12.032,4.3,17.7-.172.859-.344,1.547-.516,2.406v-2.406c-.516-7.047-5.5-15.3-8.078-20.454-2.234-4.641-5.156-9.969-5.156-15.3a35.868,35.868,0,0,1,.688-7.391,32.2,32.2,0,0,1,1.891-6.188,11.135,11.135,0,0,0-.344,3.438C238.047,235.807,241.656,245.432,245.953,254.026Z" transform="translate(-223.953 -175.133)"/>
            <path id="Path_151" data-name="Path 151" class="cls-42" d="M268.742,280.219a24.686,24.686,0,0,1-14.954,4.813,25.115,25.115,0,0,1-16.672-6.36,26.957,26.957,0,0,1-6.016-7.219,19.786,19.786,0,0,0,2.922,2.406c9.281,6.016,25.782,6.188,36.61.516a22.826,22.826,0,0,0,6.531-5.156,10.439,10.439,0,0,0,1.2-1.719c-.344,1.031-.859,1.891-1.2,2.922a28.626,28.626,0,0,1-3.094,4.813,30.747,30.747,0,0,1-4.813,4.641A2.124,2.124,0,0,1,268.742,280.219Z" transform="translate(-227.834 -142.716)"/>
            <path id="Path_152" data-name="Path 152" class="cls-43" d="M252.494,276.176c-10.828,0-19.594-3.953-19.594-8.938s8.766-8.938,19.594-8.938h1.547a22.367,22.367,0,0,1-1.375,2.922h-.172c-8.422,0-15.3,2.922-15.3,6.7,0,3.61,6.875,6.7,15.3,6.7s15.3-3.094,15.3-6.7c0-3.438-6.188-6.36-14.094-6.531a12.034,12.034,0,0,0,1.547-2.922c9.453.688,16.672,4.3,16.672,8.766,0,2.234-1.719,4.125-4.469,5.672h0c-3.438,1.891-8.766,3.266-14.953,3.266Z" transform="translate(-226.54 -149.328)"/>
            <path id="Path_153" data-name="Path 153" class="cls-38" d="M250.485,282.594c-5.156-.172-15.3-3.609-15.985-8.422l.172-.172a25.116,25.116,0,0,0,16.672,6.36,25.443,25.443,0,0,0,14.954-4.813C266.126,280.36,255.641,282.766,250.485,282.594Z" transform="translate(-225.39 -138.043)"/>
            <path id="Path_154" data-name="Path 154" class="cls-39" d="M235.156,268.61c0,4.984,8.766,8.938,19.594,8.938-7.219.172-14.438-1.375-19.594-4.641A14.733,14.733,0,0,1,230,267.751c1.375-2.75,4.125-5.156,7.906-7.219,5.672-3.094,12.719-4.3,19.594-4.125-.344,1.031-.859,2.234-1.2,3.266h-1.547C243.922,259.672,235.156,263.626,235.156,268.61Z" transform="translate(-228.625 -150.701)"/>
            <path id="Path_155" data-name="Path 155" class="cls-38" d="M255.378,251.2a34.52,34.52,0,0,1,4.3.172,36.031,36.031,0,0,1-1.719,8.766,41.4,41.4,0,0,0-19.594,4.125c-3.781,2.063-6.531,4.469-7.906,7.219a8.315,8.315,0,0,1-1.031-5.328,7.311,7.311,0,0,1,.344-1.891h0c1.031-3.266,3.953-6.531,8.594-8.938,4.813-2.578,10.657-3.781,16.5-4.125v2.406A12.039,12.039,0,0,0,255.378,251.2Z" transform="translate(-229.081 -154.432)"/>
            <path id="Path_156" data-name="Path 156" class="cls-38" d="M255.154,274.983h0c6.188,0,11.516-1.2,15.125-3.266h0c.687-.344,1.2-.516,1.891-.859,3.781-2.063,6.531-4.469,7.906-7.219a22.963,22.963,0,0,0,1.2-3.094.532.532,0,0,0,.172-.344c.687-.859,8.078.516,9.625,4.813,1.891,5.156-.687,12.375-4.125,15.469a9.45,9.45,0,0,1-1.547,1.2,21.719,21.719,0,0,1-4.469,2.234,27.165,27.165,0,0,1-10.141,1.375,30.742,30.742,0,0,0,4.813-4.641c1.375-.516,2.922-.859,4.469-1.547a9.784,9.784,0,0,0,6.016-6.188c1.547-3.781-.172-9.8-3.781-7.735H281.8c0,.516-.172,1.2-.172,1.719,0,.344-.172.688-.172,1.2a33.917,33.917,0,0,1-1.2,4.469c0,.172,0,.172-.172.344v.172c-.344.516-.859,1.2-1.2,1.719a20.665,20.665,0,0,1-6.531,5.156c-10.828,5.672-27.157,5.5-36.61-.516a10.424,10.424,0,0,1-2.922-2.406,24.9,24.9,0,0,1-3.094-8.422,28.449,28.449,0,0,1-.516-5.5c0-.688.344-1.891.516-3.094a9.88,9.88,0,0,0,1.031,5.328,14.733,14.733,0,0,0,5.156,5.156C240.716,273.608,247.935,275.155,255.154,274.983Z" transform="translate(-229.2 -148.136)"/>
          </g>
        </g>
      </g>
    </g>
  </g>
</svg>
