<svg xmlns="http://www.w3.org/2000/svg" viewBox="0 0 65.192 54.259">
  <defs>
    <style>
      .cls-1 {
        fill: #fff;
      }
    </style>
  </defs>
  <g id="Logo_2017_VintiDesign" data-name="Logo 2017 VintiDesign" transform="translate(-646.457 16.426)">
    <path id="Path_43" data-name="Path 43" class="cls-1" d="M284.267,0h-41.12L231,20.428l32.6,33.831,32.6-33.811ZM253.756,10.042l-2.774-2.753h0l-4.9-4.9h35.187L275.156,8.5l-1.6,1.539ZM277.95,20.124c-1.8,1.721-7.653,7.673-8.159,13.261l-5.183,5.568v-10.2a.653.653,0,0,1,.162-.425l4.11-4.717a.532.532,0,0,0,.142-.3l1.336-7.41,3.118-3.422Zm-20.772-4.231,1.194,7.572a.7.7,0,0,0,.142.3l4.11,4.717a.653.653,0,0,1,.162.425l-.061,10-5.547-5.547c-.526-5.568-6.357-11.52-8.159-13.241l4.6-7.673Zm-4.839-4.616L247.4,19.5H234.5a1.947,1.947,0,0,1,.223-.567l9.192-15.549a1.925,1.925,0,0,1,.3-.4Zm-4.7,9.921a40.018,40.018,0,0,1,3.442,3.705l-5.952,6.762-10.2-10.487Zm4.515,5.082c1.66,2.247,3.138,4.9,3.32,7.37l-2,6.6-7.228-7.43Zm4.6,9.09,6.054,6.155v8.341l-7.957-8.179Zm3.563-12.8a.532.532,0,0,1-.142-.3l-1.012-6.6a.547.547,0,0,0-.2-.344L255.5,11.743h16.46L268.5,15.286a.861.861,0,0,0-.2.344L267.2,22.088a.721.721,0,0,1-.385.486Zm4.211,18.97,5.628-6.033,2.045,6.175-7.673,8.179Zm6.944-7.612V33.79c.142-2.409,1.8-5.264,3.381-7.491l6.155,6.62-7.451,7.653Zm4.515-9.09a33.3,33.3,0,0,1,3.341-3.644h13.1l-10.2,10.487Zm3.563-5.365-4.8-8.2.648-.607a.279.279,0,0,0,.061-.081l7.633-7.633a1.517,1.517,0,0,1,.3.4l9.192,15.549a2.193,2.193,0,0,1,.223.567Z" transform="translate(415.457 -16.426)"/>
  </g>
</svg>
